G04*
G04 #@! TF.GenerationSoftware,Altium Limited,Altium Designer,19.1.7 (138)*
G04*
G04 Layer_Color=65535*
%FSLAX25Y25*%
%MOIN*%
G70*
G01*
G75*
%ADD10C,0.00200*%
%ADD11C,0.01000*%
D10*
X96000Y239500D02*
X202800D01*
X95400Y239300D02*
X203400D01*
X95000Y239100D02*
X203800D01*
X94800Y238900D02*
X204000D01*
X94400Y238700D02*
X204200D01*
X94200Y238500D02*
X204600D01*
X94000Y238300D02*
X204600D01*
X94000Y238100D02*
X204800D01*
X93800Y237900D02*
X205000D01*
X93600Y237700D02*
X205200D01*
X93600Y237500D02*
X205200D01*
X93400Y237300D02*
X205400D01*
X93400Y237100D02*
X205400D01*
X93400Y236900D02*
X205400D01*
X93200Y236700D02*
X205600D01*
X93200Y236500D02*
X205600D01*
X93200Y236300D02*
X205600D01*
X93200Y236100D02*
X205600D01*
X93000Y235900D02*
X205600D01*
X93000Y235700D02*
X205600D01*
X93000Y235500D02*
X205600D01*
X93200Y235300D02*
X205600D01*
X93200Y235100D02*
X205600D01*
X93200Y234900D02*
X205600D01*
X93200Y234700D02*
X205600D01*
X93200Y234500D02*
X205600D01*
X93200Y234300D02*
X205600D01*
X93200Y234100D02*
X205600D01*
X93200Y233900D02*
X205600D01*
X93200Y233700D02*
X205600D01*
X93200Y233500D02*
X205600D01*
X93200Y233300D02*
X205600D01*
X93200Y233100D02*
X205600D01*
X93200Y232900D02*
X205600D01*
X93200Y232700D02*
X205600D01*
X93200Y232500D02*
X205600D01*
X93200Y232300D02*
X205600D01*
X93200Y232100D02*
X205600D01*
X93200Y231900D02*
X205600D01*
X93200Y231700D02*
X205600D01*
X93200Y231500D02*
X205600D01*
X93200Y231300D02*
X205600D01*
X93200Y231100D02*
X205600D01*
X93200Y230900D02*
X205600D01*
X93200Y230700D02*
X205600D01*
X93200Y230500D02*
X205600D01*
X93200Y230300D02*
X205600D01*
X93200Y230100D02*
X205600D01*
X93200Y229900D02*
X205600D01*
X93200Y229700D02*
X205600D01*
X93200Y229500D02*
X205600D01*
X93200Y229300D02*
X205600D01*
X93200Y229100D02*
X205600D01*
X93200Y228900D02*
X205600D01*
X93200Y228700D02*
X205600D01*
X93200Y228500D02*
X205600D01*
X93200Y228300D02*
X205600D01*
X93200Y228100D02*
X205600D01*
X93200Y227900D02*
X105400D01*
X193400D02*
X205600D01*
X93200Y227700D02*
X105400D01*
X193400D02*
X205600D01*
X93200Y227500D02*
X105400D01*
X193400D02*
X205600D01*
X93200Y227300D02*
X105400D01*
X193400D02*
X205600D01*
X93200Y227100D02*
X105400D01*
X193400D02*
X205600D01*
X93200Y226900D02*
X105400D01*
X193400D02*
X205600D01*
X93200Y226700D02*
X105400D01*
X193400D02*
X205600D01*
X93200Y226500D02*
X105400D01*
X193400D02*
X205600D01*
X93200Y226300D02*
X105400D01*
X193400D02*
X205600D01*
X93200Y226100D02*
X105400D01*
X193400D02*
X205600D01*
X93200Y225900D02*
X105400D01*
X193400D02*
X205600D01*
X93200Y225700D02*
X105400D01*
X193400D02*
X205600D01*
X93200Y225500D02*
X105400D01*
X193400D02*
X205600D01*
X93200Y225300D02*
X105400D01*
X193400D02*
X205600D01*
X93200Y225100D02*
X105400D01*
X193400D02*
X205600D01*
X93200Y224900D02*
X105400D01*
X193400D02*
X205600D01*
X93200Y224700D02*
X105400D01*
X193400D02*
X205600D01*
X93200Y224500D02*
X105400D01*
X193400D02*
X205600D01*
X93200Y224300D02*
X105400D01*
X193400D02*
X205600D01*
X93200Y224100D02*
X105400D01*
X193400D02*
X205600D01*
X93200Y223900D02*
X105400D01*
X193400D02*
X205600D01*
X93200Y223700D02*
X105400D01*
X193400D02*
X205600D01*
X93200Y223500D02*
X105400D01*
X193400D02*
X205600D01*
X93200Y223300D02*
X105400D01*
X193400D02*
X205600D01*
X93200Y223100D02*
X105400D01*
X109400D02*
X189400D01*
X193400D02*
X205600D01*
X93200Y222900D02*
X105400D01*
X109400D02*
X189400D01*
X193400D02*
X205600D01*
X93200Y222700D02*
X105400D01*
X109400D02*
X189400D01*
X193400D02*
X205600D01*
X93200Y222500D02*
X105400D01*
X109400D02*
X189400D01*
X193400D02*
X205600D01*
X93200Y222300D02*
X105400D01*
X109400D02*
X189400D01*
X193400D02*
X205600D01*
X93200Y222100D02*
X105400D01*
X109400D02*
X189400D01*
X193400D02*
X205600D01*
X93200Y221900D02*
X105400D01*
X109400D02*
X189400D01*
X193400D02*
X205600D01*
X93200Y221700D02*
X105400D01*
X109400D02*
X189400D01*
X193400D02*
X205600D01*
X93200Y221500D02*
X105400D01*
X109400D02*
X189400D01*
X193400D02*
X205600D01*
X93200Y221300D02*
X105400D01*
X109400D02*
X189400D01*
X193400D02*
X205600D01*
X93200Y221100D02*
X105400D01*
X109400D02*
X189400D01*
X193400D02*
X205600D01*
X93200Y220900D02*
X105400D01*
X109400D02*
X112000D01*
X126000D02*
X161600D01*
X171800D02*
X189400D01*
X193400D02*
X205600D01*
X93200Y220700D02*
X105400D01*
X109400D02*
X112000D01*
X127200D02*
X161400D01*
X172000D02*
X189400D01*
X193400D02*
X205600D01*
X93200Y220500D02*
X105400D01*
X109400D02*
X112000D01*
X127600D02*
X161400D01*
X172000D02*
X189400D01*
X193400D02*
X205600D01*
X93200Y220300D02*
X105400D01*
X109400D02*
X112000D01*
X128000D02*
X161200D01*
X172200D02*
X189400D01*
X193400D02*
X205600D01*
X93200Y220100D02*
X105400D01*
X109400D02*
X112000D01*
X128400D02*
X161000D01*
X172200D02*
X189400D01*
X193400D02*
X205600D01*
X93200Y219900D02*
X105400D01*
X109400D02*
X112000D01*
X129000D02*
X161000D01*
X172400D02*
X189400D01*
X193400D02*
X205600D01*
X93200Y219700D02*
X105400D01*
X109400D02*
X112000D01*
X129400D02*
X160800D01*
X172600D02*
X189400D01*
X193400D02*
X205600D01*
X93200Y219500D02*
X105400D01*
X109400D02*
X112000D01*
X129800D02*
X160600D01*
X172600D02*
X189400D01*
X193400D02*
X205600D01*
X93200Y219300D02*
X105400D01*
X109400D02*
X112000D01*
X129800D02*
X160600D01*
X172800D02*
X189400D01*
X193400D02*
X205600D01*
X93200Y219100D02*
X105400D01*
X109400D02*
X112000D01*
X130400D02*
X160400D01*
X172800D02*
X189400D01*
X193400D02*
X205600D01*
X93200Y218900D02*
X105400D01*
X109400D02*
X112000D01*
X130600D02*
X160400D01*
X173000D02*
X189400D01*
X193400D02*
X205600D01*
X93200Y218700D02*
X105400D01*
X109400D02*
X112000D01*
X130800D02*
X160200D01*
X173000D02*
X189400D01*
X193400D02*
X205600D01*
X93200Y218500D02*
X105400D01*
X109400D02*
X112000D01*
X131000D02*
X160000D01*
X173200D02*
X189400D01*
X193400D02*
X205600D01*
X93200Y218300D02*
X105400D01*
X109400D02*
X112000D01*
X131400D02*
X160000D01*
X173400D02*
X189400D01*
X193400D02*
X205600D01*
X93200Y218100D02*
X105400D01*
X109400D02*
X112000D01*
X131600D02*
X159800D01*
X173400D02*
X189400D01*
X193400D02*
X205600D01*
X93200Y217900D02*
X105400D01*
X109400D02*
X112000D01*
X131800D02*
X159600D01*
X173600D02*
X189400D01*
X193400D02*
X205600D01*
X93200Y217700D02*
X105400D01*
X109400D02*
X112000D01*
X132000D02*
X159600D01*
X173600D02*
X189400D01*
X193400D02*
X205600D01*
X93200Y217500D02*
X105400D01*
X109400D02*
X112000D01*
X132200D02*
X159400D01*
X173800D02*
X189400D01*
X193400D02*
X205600D01*
X93200Y217300D02*
X105400D01*
X109400D02*
X112000D01*
X132400D02*
X159200D01*
X174000D02*
X189400D01*
X193400D02*
X205600D01*
X93200Y217100D02*
X105400D01*
X109400D02*
X112000D01*
X132600D02*
X159200D01*
X174000D02*
X189400D01*
X193400D02*
X205600D01*
X93200Y216900D02*
X105400D01*
X109400D02*
X112000D01*
X132800D02*
X159000D01*
X174200D02*
X189400D01*
X193400D02*
X205600D01*
X93200Y216700D02*
X105400D01*
X109400D02*
X112000D01*
X133000D02*
X158800D01*
X174200D02*
X189400D01*
X193400D02*
X205600D01*
X93200Y216500D02*
X105400D01*
X109400D02*
X112000D01*
X133200D02*
X158800D01*
X174400D02*
X189400D01*
X193400D02*
X205600D01*
X93200Y216300D02*
X105400D01*
X109400D02*
X112000D01*
X133200D02*
X158600D01*
X174400D02*
X189400D01*
X193400D02*
X205600D01*
X93200Y216100D02*
X105400D01*
X109400D02*
X112000D01*
X133400D02*
X158400D01*
X166000D02*
X166200D01*
X174600D02*
X189400D01*
X193400D02*
X205600D01*
X93200Y215900D02*
X105400D01*
X109400D02*
X112000D01*
X133800D02*
X158400D01*
X165800D02*
X166400D01*
X174800D02*
X189400D01*
X193400D02*
X205600D01*
X93200Y215700D02*
X105400D01*
X109400D02*
X112000D01*
X133800D02*
X158200D01*
X165800D02*
X166400D01*
X174800D02*
X189400D01*
X193400D02*
X205600D01*
X93200Y215500D02*
X105400D01*
X109400D02*
X112000D01*
X133800D02*
X158000D01*
X165600D02*
X166600D01*
X175000D02*
X189400D01*
X193400D02*
X205600D01*
X93200Y215300D02*
X105400D01*
X109400D02*
X112000D01*
X134000D02*
X158000D01*
X165400D02*
X166800D01*
X175000D02*
X189400D01*
X193400D02*
X205600D01*
X93200Y215100D02*
X105400D01*
X109400D02*
X124200D01*
X134400D02*
X157800D01*
X165400D02*
X166800D01*
X175200D02*
X189400D01*
X193400D02*
X205600D01*
X93200Y214900D02*
X105400D01*
X109400D02*
X125000D01*
X134400D02*
X157800D01*
X165200D02*
X167000D01*
X175400D02*
X189400D01*
X193400D02*
X205600D01*
X93200Y214700D02*
X105400D01*
X109400D02*
X125400D01*
X134600D02*
X157600D01*
X165000D02*
X167200D01*
X175400D02*
X189400D01*
X193400D02*
X205600D01*
X93200Y214500D02*
X105400D01*
X109400D02*
X125800D01*
X134600D02*
X157400D01*
X165000D02*
X167200D01*
X175600D02*
X189400D01*
X193400D02*
X205600D01*
X93200Y214300D02*
X105400D01*
X109400D02*
X126600D01*
X134800D02*
X157400D01*
X164800D02*
X167400D01*
X175600D02*
X189400D01*
X193400D02*
X205600D01*
X93200Y214100D02*
X105400D01*
X109400D02*
X126800D01*
X134800D02*
X157200D01*
X164800D02*
X167400D01*
X175800D02*
X189400D01*
X193400D02*
X205600D01*
X93200Y213900D02*
X105400D01*
X109400D02*
X127000D01*
X134800D02*
X157000D01*
X164600D02*
X167600D01*
X175800D02*
X189400D01*
X193400D02*
X205600D01*
X93200Y213700D02*
X105400D01*
X109400D02*
X127400D01*
X135000D02*
X157000D01*
X164400D02*
X167800D01*
X176000D02*
X189400D01*
X193400D02*
X205600D01*
X93200Y213500D02*
X105400D01*
X109400D02*
X127600D01*
X135200D02*
X156800D01*
X164400D02*
X167800D01*
X176200D02*
X189400D01*
X193400D02*
X205600D01*
X93200Y213300D02*
X105400D01*
X109400D02*
X127800D01*
X135200D02*
X156600D01*
X164200D02*
X168000D01*
X176200D02*
X189400D01*
X193400D02*
X205600D01*
X93200Y213100D02*
X105400D01*
X109400D02*
X128200D01*
X135400D02*
X156600D01*
X164200D02*
X168000D01*
X176400D02*
X189400D01*
X193400D02*
X205600D01*
X93200Y212900D02*
X105400D01*
X109400D02*
X128200D01*
X135400D02*
X156400D01*
X164000D02*
X168200D01*
X176400D02*
X189400D01*
X193400D02*
X205600D01*
X93200Y212700D02*
X105400D01*
X109400D02*
X128400D01*
X135600D02*
X156200D01*
X163800D02*
X168400D01*
X176600D02*
X189400D01*
X193400D02*
X205600D01*
X93200Y212500D02*
X105400D01*
X109400D02*
X128600D01*
X135600D02*
X156200D01*
X163800D02*
X168400D01*
X176800D02*
X189400D01*
X193400D02*
X205600D01*
X93200Y212300D02*
X105400D01*
X109400D02*
X128800D01*
X135600D02*
X156000D01*
X163600D02*
X168600D01*
X176800D02*
X189400D01*
X193400D02*
X205600D01*
X93200Y212100D02*
X105400D01*
X109400D02*
X129000D01*
X135600D02*
X155800D01*
X163600D02*
X168600D01*
X177000D02*
X189400D01*
X193400D02*
X205600D01*
X93200Y211900D02*
X105400D01*
X109400D02*
X129000D01*
X135800D02*
X155800D01*
X163400D02*
X168800D01*
X177000D02*
X189400D01*
X193400D02*
X205600D01*
X93200Y211700D02*
X105400D01*
X109400D02*
X129200D01*
X135800D02*
X155600D01*
X163200D02*
X169000D01*
X177200D02*
X189400D01*
X193400D02*
X205600D01*
X93200Y211500D02*
X105400D01*
X109400D02*
X129400D01*
X135800D02*
X155400D01*
X163200D02*
X169000D01*
X177200D02*
X189400D01*
X193400D02*
X205600D01*
X93200Y211300D02*
X105400D01*
X109400D02*
X129400D01*
X136000D02*
X155400D01*
X163000D02*
X169200D01*
X177400D02*
X189400D01*
X193400D02*
X205600D01*
X93200Y211100D02*
X105400D01*
X109400D02*
X129600D01*
X136000D02*
X155200D01*
X162800D02*
X169400D01*
X177600D02*
X189400D01*
X193400D02*
X205600D01*
X93200Y210900D02*
X105400D01*
X109400D02*
X129800D01*
X136000D02*
X155200D01*
X162800D02*
X169400D01*
X177600D02*
X189400D01*
X193400D02*
X205600D01*
X93200Y210700D02*
X105400D01*
X109400D02*
X129800D01*
X136200D02*
X155000D01*
X162600D02*
X169600D01*
X177800D02*
X189400D01*
X193400D02*
X205600D01*
X93200Y210500D02*
X105400D01*
X109400D02*
X129800D01*
X136200D02*
X154800D01*
X162600D02*
X169600D01*
X177800D02*
X189400D01*
X193400D02*
X205600D01*
X93200Y210300D02*
X105400D01*
X109400D02*
X129800D01*
X136200D02*
X154800D01*
X162400D02*
X169800D01*
X178000D02*
X189400D01*
X193400D02*
X205600D01*
X93200Y210100D02*
X105400D01*
X109400D02*
X130000D01*
X136400D02*
X154600D01*
X162200D02*
X170000D01*
X178200D02*
X189400D01*
X193400D02*
X205600D01*
X93200Y209900D02*
X105400D01*
X109400D02*
X130000D01*
X136400D02*
X154400D01*
X162200D02*
X170000D01*
X178200D02*
X189400D01*
X193400D02*
X205600D01*
X93200Y209700D02*
X105400D01*
X109400D02*
X130000D01*
X136400D02*
X154400D01*
X162000D02*
X170200D01*
X178400D02*
X189400D01*
X193400D02*
X205600D01*
X93200Y209500D02*
X105400D01*
X109400D02*
X130200D01*
X136400D02*
X154200D01*
X161800D02*
X170200D01*
X178400D02*
X189400D01*
X193400D02*
X205600D01*
X93200Y209300D02*
X105400D01*
X109400D02*
X130200D01*
X136400D02*
X154000D01*
X161800D02*
X170400D01*
X178600D02*
X189400D01*
X193400D02*
X205600D01*
X93200Y209100D02*
X105400D01*
X109400D02*
X130200D01*
X136400D02*
X154000D01*
X161600D02*
X170600D01*
X178600D02*
X189400D01*
X193400D02*
X205600D01*
X93200Y208900D02*
X105400D01*
X109400D02*
X130200D01*
X136400D02*
X153800D01*
X161600D02*
X170600D01*
X178800D02*
X189400D01*
X193400D02*
X205600D01*
X93200Y208700D02*
X105400D01*
X109400D02*
X130200D01*
X136400D02*
X153600D01*
X161400D02*
X170800D01*
X179000D02*
X189400D01*
X193400D02*
X205600D01*
X93200Y208500D02*
X105400D01*
X109400D02*
X130200D01*
X136400D02*
X153600D01*
X161200D02*
X170800D01*
X179000D02*
X189400D01*
X193400D02*
X205600D01*
X93200Y208300D02*
X105400D01*
X109400D02*
X130400D01*
X136400D02*
X153400D01*
X161200D02*
X171000D01*
X179200D02*
X189400D01*
X193400D02*
X205600D01*
X93200Y208100D02*
X105400D01*
X109400D02*
X130400D01*
X136400D02*
X153200D01*
X161000D02*
X171200D01*
X179200D02*
X189400D01*
X193400D02*
X205600D01*
X93200Y207900D02*
X105400D01*
X109400D02*
X130400D01*
X136400D02*
X153200D01*
X161000D02*
X171200D01*
X179400D02*
X189400D01*
X193400D02*
X205600D01*
X93200Y207700D02*
X105400D01*
X109400D02*
X130400D01*
X136400D02*
X153000D01*
X161000D02*
X171400D01*
X179600D02*
X189400D01*
X193400D02*
X205600D01*
X93200Y207500D02*
X105400D01*
X109400D02*
X130400D01*
X136400D02*
X153000D01*
X160600D02*
X171400D01*
X179600D02*
X189400D01*
X193400D02*
X205600D01*
X93200Y207300D02*
X105400D01*
X109400D02*
X130400D01*
X136400D02*
X152800D01*
X160600D02*
X189400D01*
X193400D02*
X205600D01*
X93200Y207100D02*
X105400D01*
X109400D02*
X130400D01*
X136400D02*
X152600D01*
X160600D02*
X189400D01*
X193400D02*
X205600D01*
X93200Y206900D02*
X105400D01*
X109400D02*
X130400D01*
X136400D02*
X152600D01*
X160200D02*
X189400D01*
X193400D02*
X205600D01*
X93200Y206700D02*
X105400D01*
X109400D02*
X130400D01*
X136400D02*
X152400D01*
X160200D02*
X189400D01*
X193400D02*
X205600D01*
X93200Y206500D02*
X105400D01*
X109400D02*
X130400D01*
X136400D02*
X152200D01*
X160000D02*
X189400D01*
X193400D02*
X205600D01*
X93200Y206300D02*
X105400D01*
X109400D02*
X130400D01*
X136400D02*
X152200D01*
X160000D02*
X189400D01*
X193400D02*
X205600D01*
X93200Y206100D02*
X105400D01*
X109400D02*
X130400D01*
X136400D02*
X152000D01*
X159800D02*
X189400D01*
X193400D02*
X205600D01*
X93200Y205900D02*
X105400D01*
X109400D02*
X130200D01*
X136400D02*
X151800D01*
X159600D02*
X189400D01*
X193400D02*
X205600D01*
X93200Y205700D02*
X105400D01*
X109400D02*
X130200D01*
X136400D02*
X151800D01*
X186800D02*
X189400D01*
X193400D02*
X205600D01*
X93200Y205500D02*
X105400D01*
X109400D02*
X130200D01*
X136400D02*
X151600D01*
X186800D02*
X189400D01*
X193400D02*
X205600D01*
X93200Y205300D02*
X105400D01*
X109400D02*
X130200D01*
X136400D02*
X151400D01*
X186800D02*
X189400D01*
X193400D02*
X205600D01*
X93200Y205100D02*
X105400D01*
X109400D02*
X130200D01*
X136400D02*
X151400D01*
X186800D02*
X189400D01*
X193400D02*
X205600D01*
X93200Y204900D02*
X105400D01*
X109400D02*
X130200D01*
X136400D02*
X151200D01*
X186800D02*
X189400D01*
X193400D02*
X205600D01*
X93200Y204700D02*
X105400D01*
X109400D02*
X130000D01*
X136400D02*
X151000D01*
X186800D02*
X189400D01*
X193400D02*
X205600D01*
X93200Y204500D02*
X105400D01*
X109400D02*
X130000D01*
X136400D02*
X151000D01*
X186800D02*
X189400D01*
X193400D02*
X205600D01*
X93200Y204300D02*
X105400D01*
X109400D02*
X130000D01*
X136400D02*
X150800D01*
X186800D02*
X189400D01*
X193400D02*
X205600D01*
X93200Y204100D02*
X105400D01*
X109400D02*
X129800D01*
X136200D02*
X150600D01*
X186800D02*
X189400D01*
X193400D02*
X205600D01*
X93200Y203900D02*
X105400D01*
X109400D02*
X129800D01*
X136200D02*
X150600D01*
X186800D02*
X189400D01*
X193400D02*
X205600D01*
X93200Y203700D02*
X105400D01*
X109400D02*
X129800D01*
X136200D02*
X150400D01*
X186800D02*
X189400D01*
X193400D02*
X205600D01*
X93200Y203500D02*
X105400D01*
X109400D02*
X129600D01*
X136000D02*
X150400D01*
X186800D02*
X189400D01*
X193400D02*
X205600D01*
X93200Y203300D02*
X105400D01*
X109400D02*
X129600D01*
X136000D02*
X150200D01*
X186800D02*
X189400D01*
X193400D02*
X205600D01*
X93200Y203100D02*
X105400D01*
X109400D02*
X129400D01*
X135800D02*
X150000D01*
X186800D02*
X189400D01*
X193400D02*
X205600D01*
X93200Y202900D02*
X105400D01*
X109400D02*
X129200D01*
X135800D02*
X150000D01*
X186800D02*
X189400D01*
X193400D02*
X205600D01*
X93200Y202700D02*
X105400D01*
X109400D02*
X129200D01*
X135800D02*
X149800D01*
X186800D02*
X189400D01*
X193400D02*
X205600D01*
X93200Y202500D02*
X105400D01*
X109400D02*
X129000D01*
X135600D02*
X149600D01*
X186800D02*
X189400D01*
X193400D02*
X205600D01*
X93200Y202300D02*
X105400D01*
X109400D02*
X129000D01*
X135600D02*
X149600D01*
X186800D02*
X189400D01*
X193400D02*
X205600D01*
X93200Y202100D02*
X105400D01*
X109400D02*
X128800D01*
X135600D02*
X149400D01*
X186800D02*
X189400D01*
X193400D02*
X205600D01*
X93200Y201900D02*
X105400D01*
X109400D02*
X128600D01*
X135600D02*
X149200D01*
X186800D02*
X189400D01*
X193400D02*
X205600D01*
X93200Y201700D02*
X105400D01*
X109400D02*
X128400D01*
X135600D02*
X149200D01*
X186800D02*
X189400D01*
X193400D02*
X205600D01*
X93200Y201500D02*
X105400D01*
X109400D02*
X128200D01*
X135400D02*
X149000D01*
X186800D02*
X189400D01*
X193400D02*
X205600D01*
X93200Y201300D02*
X105400D01*
X109400D02*
X128000D01*
X135200D02*
X148800D01*
X186800D02*
X189400D01*
X193400D02*
X205600D01*
X93200Y201100D02*
X105400D01*
X109400D02*
X127800D01*
X135200D02*
X148800D01*
X186800D02*
X189400D01*
X193400D02*
X205600D01*
X93200Y200900D02*
X105400D01*
X109400D02*
X127600D01*
X135000D02*
X148600D01*
X186800D02*
X189400D01*
X193400D02*
X205600D01*
X93200Y200700D02*
X105400D01*
X109400D02*
X127200D01*
X134800D02*
X148400D01*
X186800D02*
X189400D01*
X193400D02*
X205600D01*
X93200Y200500D02*
X105400D01*
X109400D02*
X127000D01*
X134800D02*
X148400D01*
X186800D02*
X189400D01*
X193400D02*
X205600D01*
X93200Y200300D02*
X105400D01*
X109400D02*
X126600D01*
X134800D02*
X148200D01*
X186800D02*
X189400D01*
X193400D02*
X205600D01*
X93200Y200100D02*
X105400D01*
X109400D02*
X126400D01*
X134800D02*
X148200D01*
X186800D02*
X189400D01*
X193400D02*
X205600D01*
X93200Y199900D02*
X105400D01*
X109400D02*
X125800D01*
X134400D02*
X148000D01*
X186800D02*
X189400D01*
X193400D02*
X205600D01*
X93200Y199700D02*
X105400D01*
X109400D02*
X125200D01*
X134400D02*
X147800D01*
X186800D02*
X189400D01*
X193400D02*
X205600D01*
X93200Y199500D02*
X105400D01*
X109400D02*
X124800D01*
X134200D02*
X147800D01*
X186800D02*
X189400D01*
X193400D02*
X205600D01*
X93200Y199300D02*
X105400D01*
X109400D02*
X124200D01*
X134200D02*
X147600D01*
X186800D02*
X189400D01*
X193400D02*
X205600D01*
X93200Y199100D02*
X105400D01*
X109400D02*
X123000D01*
X134000D02*
X147400D01*
X156600D02*
X169400D01*
X174600D02*
X189400D01*
X193400D02*
X205600D01*
X93200Y198900D02*
X105400D01*
X109400D02*
X114600D01*
X133800D02*
X147400D01*
X156400D02*
X169400D01*
X174600D02*
X189400D01*
X193400D02*
X205600D01*
X93200Y198700D02*
X105400D01*
X109400D02*
X114600D01*
X133600D02*
X147200D01*
X156200D02*
X169400D01*
X174600D02*
X189400D01*
X193400D02*
X205600D01*
X93200Y198500D02*
X105400D01*
X109400D02*
X114600D01*
X133400D02*
X147000D01*
X156200D02*
X169400D01*
X174600D02*
X189400D01*
X193400D02*
X205600D01*
X93200Y198300D02*
X105400D01*
X109400D02*
X114600D01*
X133200D02*
X147000D01*
X156000D02*
X169400D01*
X174600D02*
X189400D01*
X193400D02*
X205600D01*
X93200Y198100D02*
X105400D01*
X109400D02*
X114600D01*
X133000D02*
X146800D01*
X155800D02*
X169400D01*
X174600D02*
X189400D01*
X193400D02*
X205600D01*
X93200Y197900D02*
X105400D01*
X109400D02*
X114600D01*
X133000D02*
X146600D01*
X155800D02*
X169400D01*
X174600D02*
X189400D01*
X193400D02*
X205600D01*
X93200Y197700D02*
X105400D01*
X109400D02*
X114600D01*
X132800D02*
X146600D01*
X155600D02*
X169400D01*
X174600D02*
X189400D01*
X193400D02*
X205600D01*
X93200Y197500D02*
X105400D01*
X109400D02*
X114600D01*
X132600D02*
X146400D01*
X155400D02*
X169400D01*
X174600D02*
X178400D01*
X185600D02*
X189400D01*
X193400D02*
X205600D01*
X93200Y197300D02*
X105400D01*
X109400D02*
X114600D01*
X132200D02*
X146200D01*
X155400D02*
X169400D01*
X174600D02*
X178200D01*
X185800D02*
X189400D01*
X193400D02*
X205600D01*
X93200Y197100D02*
X105400D01*
X109400D02*
X114600D01*
X132200D02*
X146200D01*
X155200D02*
X169400D01*
X174600D02*
X178200D01*
X186000D02*
X189400D01*
X193400D02*
X205600D01*
X93200Y196900D02*
X105400D01*
X109400D02*
X114600D01*
X132000D02*
X146000D01*
X155000D02*
X169400D01*
X174600D02*
X178200D01*
X186200D02*
X189400D01*
X193400D02*
X205600D01*
X93200Y196700D02*
X105400D01*
X109400D02*
X114600D01*
X131600D02*
X145800D01*
X155000D02*
X169400D01*
X174600D02*
X178400D01*
X186200D02*
X189400D01*
X193400D02*
X205600D01*
X93200Y196500D02*
X105400D01*
X109400D02*
X114600D01*
X131400D02*
X145800D01*
X154800D02*
X169400D01*
X174600D02*
X178400D01*
X186400D02*
X189400D01*
X193400D02*
X205600D01*
X93200Y196300D02*
X105400D01*
X109400D02*
X114800D01*
X131200D02*
X145600D01*
X154600D02*
X169400D01*
X174600D02*
X178600D01*
X186600D02*
X189400D01*
X193400D02*
X205600D01*
X93200Y196100D02*
X105400D01*
X109400D02*
X115000D01*
X130800D02*
X145600D01*
X154600D02*
X169400D01*
X174600D02*
X178600D01*
X186600D02*
X189400D01*
X193400D02*
X205600D01*
X93200Y195900D02*
X105400D01*
X109400D02*
X115000D01*
X130600D02*
X145400D01*
X154400D02*
X169400D01*
X174600D02*
X178800D01*
X186800D02*
X189400D01*
X193400D02*
X205600D01*
X93200Y195700D02*
X105400D01*
X109400D02*
X115200D01*
X130200D02*
X145200D01*
X154200D02*
X169400D01*
X174600D02*
X178800D01*
X187000D02*
X189400D01*
X193400D02*
X205600D01*
X93200Y195500D02*
X105400D01*
X109400D02*
X115200D01*
X130000D02*
X145200D01*
X154200D02*
X169400D01*
X174600D02*
X178800D01*
X187000D02*
X189400D01*
X193400D02*
X205600D01*
X93200Y195300D02*
X105400D01*
X109400D02*
X115400D01*
X129800D02*
X145000D01*
X154000D02*
X169400D01*
X174600D02*
X179000D01*
X187000D02*
X189400D01*
X193400D02*
X205600D01*
X93200Y195100D02*
X105400D01*
X109400D02*
X115600D01*
X129400D02*
X144800D01*
X153800D02*
X169400D01*
X174600D02*
X179200D01*
X187000D02*
X189400D01*
X193400D02*
X205600D01*
X93200Y194900D02*
X105400D01*
X109400D02*
X116000D01*
X128800D02*
X144800D01*
X153800D02*
X169400D01*
X174600D02*
X179200D01*
X187000D02*
X189400D01*
X193400D02*
X205600D01*
X93200Y194700D02*
X105400D01*
X109400D02*
X116000D01*
X128400D02*
X144600D01*
X153600D02*
X169400D01*
X174600D02*
X179400D01*
X187000D02*
X189400D01*
X193400D02*
X205600D01*
X93200Y194500D02*
X105400D01*
X109400D02*
X116000D01*
X128200D02*
X144400D01*
X153600D02*
X169400D01*
X174600D02*
X179400D01*
X187000D02*
X189400D01*
X193400D02*
X205600D01*
X93200Y194300D02*
X105400D01*
X109400D02*
X116200D01*
X127600D02*
X144400D01*
X153400D02*
X169400D01*
X174600D02*
X179600D01*
X187000D02*
X189400D01*
X193400D02*
X205600D01*
X93200Y194100D02*
X105400D01*
X109400D02*
X116600D01*
X126600D02*
X144200D01*
X153200D02*
X169400D01*
X174600D02*
X179600D01*
X187000D02*
X189400D01*
X193400D02*
X205600D01*
X93200Y193900D02*
X105400D01*
X109400D02*
X116800D01*
X126000D02*
X144000D01*
X153200D02*
X169400D01*
X174600D02*
X179800D01*
X187000D02*
X189400D01*
X193400D02*
X205600D01*
X93200Y193700D02*
X105400D01*
X109400D02*
X116800D01*
X125400D02*
X144000D01*
X153000D02*
X169400D01*
X174600D02*
X180000D01*
X187000D02*
X189400D01*
X193400D02*
X205600D01*
X93200Y193500D02*
X105400D01*
X109400D02*
X116800D01*
X124800D02*
X143800D01*
X152800D02*
X169400D01*
X174600D02*
X180000D01*
X187000D02*
X189400D01*
X193400D02*
X205600D01*
X93200Y193300D02*
X105400D01*
X109400D02*
X117200D01*
X125000D02*
X143600D01*
X152800D02*
X169400D01*
X174600D02*
X180200D01*
X187000D02*
X189400D01*
X193400D02*
X205600D01*
X93200Y193100D02*
X105400D01*
X109400D02*
X117400D01*
X125000D02*
X143600D01*
X152600D02*
X169400D01*
X174600D02*
X180200D01*
X187000D02*
X189400D01*
X193400D02*
X205600D01*
X93200Y192900D02*
X105400D01*
X109400D02*
X117600D01*
X125000D02*
X143400D01*
X152400D02*
X169400D01*
X174600D02*
X180400D01*
X187000D02*
X189400D01*
X193400D02*
X205600D01*
X93200Y192700D02*
X105400D01*
X109400D02*
X117600D01*
X125200D02*
X143400D01*
X152400D02*
X169400D01*
X174600D02*
X180400D01*
X187000D02*
X189400D01*
X193400D02*
X205600D01*
X93200Y192500D02*
X105400D01*
X109400D02*
X117800D01*
X125600D02*
X143200D01*
X152200D02*
X169400D01*
X174600D02*
X180600D01*
X187000D02*
X189400D01*
X193400D02*
X205600D01*
X93200Y192300D02*
X105400D01*
X109400D02*
X118000D01*
X125800D02*
X143000D01*
X152000D02*
X169400D01*
X174600D02*
X180600D01*
X187000D02*
X189400D01*
X193400D02*
X205600D01*
X93200Y192100D02*
X105400D01*
X109400D02*
X118200D01*
X125800D02*
X143000D01*
X152000D02*
X169400D01*
X174600D02*
X180800D01*
X187000D02*
X189400D01*
X193400D02*
X205600D01*
X93200Y191900D02*
X105400D01*
X109400D02*
X118400D01*
X126000D02*
X142800D01*
X151800D02*
X169400D01*
X174600D02*
X180800D01*
X187000D02*
X189400D01*
X193400D02*
X205600D01*
X93200Y191700D02*
X105400D01*
X109400D02*
X118400D01*
X126200D02*
X142600D01*
X151600D02*
X169400D01*
X174600D02*
X181000D01*
X187000D02*
X189400D01*
X193400D02*
X205600D01*
X93200Y191500D02*
X105400D01*
X109400D02*
X118600D01*
X126400D02*
X142600D01*
X151600D02*
X169400D01*
X174600D02*
X181200D01*
X187000D02*
X189400D01*
X193400D02*
X205600D01*
X93200Y191300D02*
X105400D01*
X109400D02*
X118800D01*
X126600D02*
X142400D01*
X151400D02*
X169400D01*
X174600D02*
X181400D01*
X187000D02*
X189400D01*
X193400D02*
X205600D01*
X93200Y191100D02*
X105400D01*
X109400D02*
X119000D01*
X126600D02*
X142200D01*
X151200D02*
X169400D01*
X174600D02*
X181400D01*
X187000D02*
X189400D01*
X193400D02*
X205600D01*
X93200Y190900D02*
X105400D01*
X109400D02*
X119400D01*
X127000D02*
X142200D01*
X151200D02*
X169400D01*
X174600D02*
X181600D01*
X187000D02*
X189400D01*
X193400D02*
X205600D01*
X93200Y190700D02*
X105400D01*
X109400D02*
X119400D01*
X127200D02*
X142000D01*
X151000D02*
X169400D01*
X174600D02*
X181600D01*
X187000D02*
X189400D01*
X193400D02*
X205600D01*
X93200Y190500D02*
X105400D01*
X109400D02*
X119600D01*
X127400D02*
X141800D01*
X150800D02*
X169400D01*
X174600D02*
X181800D01*
X187000D02*
X189400D01*
X193400D02*
X205600D01*
X93200Y190300D02*
X105400D01*
X109400D02*
X119800D01*
X127400D02*
X141800D01*
X150800D02*
X169400D01*
X174600D02*
X182000D01*
X187000D02*
X189400D01*
X193400D02*
X205600D01*
X93200Y190100D02*
X105400D01*
X109400D02*
X120000D01*
X127600D02*
X141600D01*
X150600D02*
X169400D01*
X174600D02*
X182000D01*
X187000D02*
X189400D01*
X193400D02*
X205600D01*
X93200Y189900D02*
X105400D01*
X109400D02*
X120200D01*
X127800D02*
X141400D01*
X150400D02*
X169400D01*
X174600D02*
X182200D01*
X187000D02*
X189400D01*
X193400D02*
X205600D01*
X93200Y189700D02*
X105400D01*
X109400D02*
X120200D01*
X128000D02*
X141400D01*
X150400D02*
X169400D01*
X174600D02*
X182200D01*
X187000D02*
X189400D01*
X193400D02*
X205600D01*
X93200Y189500D02*
X105400D01*
X109400D02*
X120400D01*
X128200D02*
X141200D01*
X150200D02*
X169400D01*
X174600D02*
X182400D01*
X187000D02*
X189400D01*
X193400D02*
X205600D01*
X93200Y189300D02*
X105400D01*
X109400D02*
X120800D01*
X128400D02*
X141000D01*
X150000D02*
X169400D01*
X174600D02*
X182400D01*
X187000D02*
X189400D01*
X193400D02*
X205600D01*
X93200Y189100D02*
X105400D01*
X109400D02*
X120800D01*
X128400D02*
X141000D01*
X150000D02*
X169400D01*
X174600D02*
X182600D01*
X187000D02*
X189400D01*
X193400D02*
X205600D01*
X93200Y188900D02*
X105400D01*
X109400D02*
X121000D01*
X128600D02*
X140800D01*
X149800D02*
X169400D01*
X174600D02*
X182800D01*
X187000D02*
X189400D01*
X193400D02*
X205600D01*
X93200Y188700D02*
X105400D01*
X109400D02*
X121000D01*
X128800D02*
X140800D01*
X149600D02*
X169400D01*
X174600D02*
X182800D01*
X187000D02*
X189400D01*
X193400D02*
X205600D01*
X93200Y188500D02*
X105400D01*
X109400D02*
X121400D01*
X129000D02*
X140600D01*
X149600D02*
X169400D01*
X174600D02*
X183000D01*
X187000D02*
X189400D01*
X193400D02*
X205600D01*
X93200Y188300D02*
X105400D01*
X109400D02*
X121600D01*
X129200D02*
X140400D01*
X149400D02*
X169400D01*
X174600D02*
X183000D01*
X187000D02*
X189400D01*
X193400D02*
X205600D01*
X93200Y188100D02*
X105400D01*
X109400D02*
X121600D01*
X129400D02*
X140400D01*
X149200D02*
X169400D01*
X174600D02*
X183200D01*
X187000D02*
X189400D01*
X193400D02*
X205600D01*
X93200Y187900D02*
X105400D01*
X109400D02*
X121800D01*
X129400D02*
X140200D01*
X149200D02*
X169400D01*
X174600D02*
X183400D01*
X187000D02*
X189400D01*
X193400D02*
X205600D01*
X93200Y187700D02*
X105400D01*
X109400D02*
X122000D01*
X129800D02*
X140000D01*
X149000D02*
X169400D01*
X174600D02*
X183400D01*
X187000D02*
X189400D01*
X193400D02*
X205600D01*
X93200Y187500D02*
X105400D01*
X109400D02*
X122200D01*
X129800D02*
X140000D01*
X148800D02*
X169400D01*
X174600D02*
X183600D01*
X187000D02*
X189400D01*
X193400D02*
X205600D01*
X93200Y187300D02*
X105400D01*
X109400D02*
X122200D01*
X130000D02*
X139800D01*
X148800D02*
X169400D01*
X174600D02*
X183600D01*
X187000D02*
X189400D01*
X193400D02*
X205600D01*
X93200Y187100D02*
X105400D01*
X109400D02*
X122400D01*
X130200D02*
X139600D01*
X148600D02*
X169400D01*
X174600D02*
X183800D01*
X187000D02*
X189400D01*
X193400D02*
X205600D01*
X93200Y186900D02*
X105400D01*
X109400D02*
X122600D01*
X130400D02*
X139600D01*
X148600D02*
X169400D01*
X174600D02*
X183800D01*
X187000D02*
X189400D01*
X193400D02*
X205600D01*
X93200Y186700D02*
X105400D01*
X109400D02*
X122600D01*
X130600D02*
X139400D01*
X148400D02*
X169400D01*
X174600D02*
X184000D01*
X187000D02*
X189400D01*
X193400D02*
X205600D01*
X93200Y186500D02*
X105400D01*
X109400D02*
X122800D01*
X130600D02*
X139200D01*
X148200D02*
X169400D01*
X174600D02*
X184200D01*
X187000D02*
X189400D01*
X193400D02*
X205600D01*
X93200Y186300D02*
X105400D01*
X109400D02*
X123000D01*
X130600D02*
X139200D01*
X148200D02*
X169400D01*
X174600D02*
X184200D01*
X187000D02*
X189400D01*
X193400D02*
X205600D01*
X93200Y186100D02*
X105400D01*
X109400D02*
X123200D01*
X131000D02*
X139000D01*
X148000D02*
X169400D01*
X174600D02*
X184400D01*
X187000D02*
X189400D01*
X193400D02*
X205600D01*
X93200Y185900D02*
X105400D01*
X109400D02*
X123400D01*
X131200D02*
X138800D01*
X147800D02*
X169400D01*
X174600D02*
X184400D01*
X187000D02*
X189400D01*
X193400D02*
X205600D01*
X93200Y185700D02*
X105400D01*
X109400D02*
X123400D01*
X131400D02*
X138800D01*
X147800D02*
X169400D01*
X174600D02*
X184600D01*
X187000D02*
X189400D01*
X193400D02*
X205600D01*
X93200Y185500D02*
X105400D01*
X109400D02*
X123600D01*
X131400D02*
X138600D01*
X147600D02*
X169400D01*
X174600D02*
X184600D01*
X187000D02*
X189400D01*
X193400D02*
X205600D01*
X93200Y185300D02*
X105400D01*
X109400D02*
X124000D01*
X131600D02*
X138600D01*
X147400D02*
X169400D01*
X174600D02*
X184800D01*
X187000D02*
X189400D01*
X193400D02*
X205600D01*
X93200Y185100D02*
X105400D01*
X109400D02*
X124000D01*
X131800D02*
X138400D01*
X147400D02*
X169400D01*
X174600D02*
X185000D01*
X187000D02*
X189400D01*
X193400D02*
X205600D01*
X93200Y184900D02*
X105400D01*
X109400D02*
X124200D01*
X132000D02*
X138200D01*
X147200D02*
X169400D01*
X174600D02*
X185000D01*
X187000D02*
X189400D01*
X193400D02*
X205600D01*
X93200Y184700D02*
X105400D01*
X109400D02*
X124200D01*
X132200D02*
X138200D01*
X147000D02*
X169400D01*
X174600D02*
X185200D01*
X187000D02*
X189400D01*
X193400D02*
X205600D01*
X93200Y184500D02*
X105400D01*
X109400D02*
X124600D01*
X132200D02*
X138000D01*
X147000D02*
X169400D01*
X174600D02*
X185200D01*
X187000D02*
X189400D01*
X193400D02*
X205600D01*
X93200Y184300D02*
X105400D01*
X109400D02*
X124800D01*
X132400D02*
X137800D01*
X146800D02*
X169400D01*
X174600D02*
X185400D01*
X187000D02*
X189400D01*
X193400D02*
X205600D01*
X93200Y184100D02*
X105400D01*
X109400D02*
X124800D01*
X132600D02*
X137800D01*
X146600D02*
X169400D01*
X174600D02*
X185600D01*
X187000D02*
X189400D01*
X193400D02*
X205600D01*
X93200Y183900D02*
X105400D01*
X109400D02*
X125000D01*
X132800D02*
X137600D01*
X146600D02*
X169400D01*
X174600D02*
X185600D01*
X187000D02*
X189400D01*
X193400D02*
X205600D01*
X93200Y183700D02*
X105400D01*
X109400D02*
X125200D01*
X133000D02*
X137400D01*
X146400D02*
X169400D01*
X174600D02*
X185800D01*
X187000D02*
X189400D01*
X193400D02*
X205600D01*
X93200Y183500D02*
X105400D01*
X109400D02*
X125400D01*
X133000D02*
X137400D01*
X146200D02*
X169400D01*
X174600D02*
X185800D01*
X187000D02*
X189400D01*
X193400D02*
X205600D01*
X93200Y183300D02*
X105400D01*
X109400D02*
X125600D01*
X133200D02*
X137200D01*
X146200D02*
X169400D01*
X174600D02*
X186000D01*
X187000D02*
X189400D01*
X193400D02*
X205600D01*
X93200Y183100D02*
X105400D01*
X109400D02*
X125600D01*
X133400D02*
X137000D01*
X146000D02*
X169400D01*
X174600D02*
X186000D01*
X187000D02*
X189400D01*
X193400D02*
X205600D01*
X93200Y182900D02*
X105400D01*
X109400D02*
X125800D01*
X133800D02*
X137000D01*
X145800D02*
X169400D01*
X174600D02*
X186200D01*
X187000D02*
X189400D01*
X193400D02*
X205600D01*
X93200Y182700D02*
X105400D01*
X109400D02*
X126000D01*
X133800D02*
X136800D01*
X145800D02*
X169400D01*
X174600D02*
X186400D01*
X187000D02*
X189400D01*
X193400D02*
X205600D01*
X93200Y182500D02*
X105400D01*
X109400D02*
X126200D01*
X134000D02*
X136600D01*
X145600D02*
X169400D01*
X174600D02*
X186400D01*
X187000D02*
X189400D01*
X193400D02*
X205600D01*
X93200Y182300D02*
X105400D01*
X109400D02*
X126400D01*
X134200D02*
X136600D01*
X145400D02*
X169400D01*
X174600D02*
X186600D01*
X187000D02*
X189400D01*
X193400D02*
X205600D01*
X93200Y182100D02*
X105400D01*
X109400D02*
X126600D01*
X134600D02*
X136400D01*
X145400D02*
X169400D01*
X174600D02*
X189400D01*
X193400D02*
X205600D01*
X93200Y181900D02*
X105400D01*
X109400D02*
X126800D01*
X134800D02*
X136200D01*
X145200D02*
X169400D01*
X174600D02*
X189400D01*
X193400D02*
X205600D01*
X93200Y181700D02*
X105400D01*
X109400D02*
X127000D01*
X134800D02*
X136200D01*
X145000D02*
X169400D01*
X174600D02*
X189400D01*
X193400D02*
X205600D01*
X93200Y181500D02*
X105400D01*
X109400D02*
X127000D01*
X134800D02*
X136000D01*
X145000D02*
X169400D01*
X174600D02*
X189400D01*
X193400D02*
X205600D01*
X93200Y181300D02*
X105400D01*
X109400D02*
X127400D01*
X135200D02*
X136000D01*
X144800D02*
X169400D01*
X174600D02*
X189400D01*
X193400D02*
X205600D01*
X93200Y181100D02*
X105400D01*
X109400D02*
X127400D01*
X135400D02*
X135800D01*
X144600D02*
X169400D01*
X174600D02*
X189400D01*
X193400D02*
X205600D01*
X93200Y180900D02*
X105400D01*
X109400D02*
X127600D01*
X144600D02*
X169400D01*
X174600D02*
X189400D01*
X193400D02*
X205600D01*
X93200Y180700D02*
X105400D01*
X109400D02*
X127800D01*
X144400D02*
X169400D01*
X174600D02*
X189400D01*
X193400D02*
X205600D01*
X93200Y180500D02*
X105400D01*
X109400D02*
X128000D01*
X144200D02*
X169400D01*
X174600D02*
X189400D01*
X193400D02*
X205600D01*
X93200Y180300D02*
X105400D01*
X109400D02*
X128200D01*
X144200D02*
X169400D01*
X174600D02*
X189400D01*
X193400D02*
X205600D01*
X93200Y180100D02*
X105400D01*
X109400D02*
X128200D01*
X144000D02*
X169400D01*
X174600D02*
X189400D01*
X193400D02*
X205600D01*
X93200Y179900D02*
X105400D01*
X109400D02*
X128400D01*
X143800D02*
X169400D01*
X174600D02*
X189400D01*
X193400D02*
X205600D01*
X93200Y179700D02*
X105400D01*
X109400D02*
X128600D01*
X143800D02*
X169400D01*
X174600D02*
X189400D01*
X193400D02*
X205600D01*
X93200Y179500D02*
X105400D01*
X109400D02*
X128800D01*
X143600D02*
X169400D01*
X174600D02*
X189400D01*
X193400D02*
X205600D01*
X93200Y179300D02*
X105400D01*
X109400D02*
X129000D01*
X143600D02*
X169400D01*
X174600D02*
X189400D01*
X193400D02*
X205600D01*
X93200Y179100D02*
X105400D01*
X109400D02*
X129000D01*
X143400D02*
X169400D01*
X174600D02*
X189400D01*
X193400D02*
X205600D01*
X93200Y178900D02*
X105400D01*
X109400D02*
X129400D01*
X143200D02*
X169400D01*
X174600D02*
X189400D01*
X193400D02*
X205600D01*
X93200Y178700D02*
X105400D01*
X109400D02*
X129400D01*
X143200D02*
X169400D01*
X174600D02*
X189400D01*
X193400D02*
X205600D01*
X93200Y178500D02*
X105400D01*
X109400D02*
X129600D01*
X143000D02*
X169400D01*
X174600D02*
X189400D01*
X193400D02*
X205600D01*
X93200Y178300D02*
X105400D01*
X109400D02*
X129800D01*
X142800D02*
X169400D01*
X174600D02*
X189400D01*
X193400D02*
X205600D01*
X93200Y178100D02*
X105400D01*
X109400D02*
X130000D01*
X142400D02*
X169400D01*
X174600D02*
X189400D01*
X193400D02*
X205600D01*
X93200Y177900D02*
X105400D01*
X109400D02*
X130000D01*
X142200D02*
X169400D01*
X174600D02*
X189400D01*
X193400D02*
X205600D01*
X93200Y177700D02*
X105400D01*
X109400D02*
X130200D01*
X142200D02*
X169400D01*
X174600D02*
X189400D01*
X193400D02*
X205600D01*
X93200Y177500D02*
X105400D01*
X109400D02*
X130200D01*
X142000D02*
X169400D01*
X174600D02*
X189400D01*
X193400D02*
X205600D01*
X93200Y177300D02*
X105400D01*
X109400D02*
X130600D01*
X141800D02*
X169400D01*
X174600D02*
X189400D01*
X193400D02*
X205600D01*
X93200Y177100D02*
X105400D01*
X109400D02*
X130600D01*
X141800D02*
X169400D01*
X174600D02*
X189400D01*
X193400D02*
X205600D01*
X93200Y176900D02*
X105400D01*
X109400D02*
X189400D01*
X193400D02*
X205600D01*
X93200Y176700D02*
X105400D01*
X109400D02*
X189400D01*
X193400D02*
X205600D01*
X93200Y176500D02*
X105400D01*
X109400D02*
X189400D01*
X193400D02*
X205600D01*
X93200Y176300D02*
X105400D01*
X109400D02*
X189400D01*
X193400D02*
X205600D01*
X93200Y176100D02*
X105400D01*
X109400D02*
X189400D01*
X193400D02*
X205600D01*
X93200Y175900D02*
X105400D01*
X109400D02*
X189400D01*
X193400D02*
X205600D01*
X93200Y175700D02*
X105400D01*
X109400D02*
X189400D01*
X193400D02*
X205600D01*
X93200Y175500D02*
X105400D01*
X109400D02*
X189400D01*
X193400D02*
X205600D01*
X93200Y175300D02*
X105400D01*
X109400D02*
X189400D01*
X193400D02*
X205600D01*
X93200Y175100D02*
X105400D01*
X193400D02*
X205600D01*
X93200Y174900D02*
X105400D01*
X193400D02*
X205600D01*
X93200Y174700D02*
X105400D01*
X193400D02*
X205600D01*
X93200Y174500D02*
X105400D01*
X193400D02*
X205600D01*
X93200Y174300D02*
X105400D01*
X193400D02*
X205600D01*
X93200Y174100D02*
X105400D01*
X193400D02*
X205600D01*
X93200Y173900D02*
X105400D01*
X193400D02*
X205600D01*
X93200Y173700D02*
X105400D01*
X193400D02*
X205600D01*
X93200Y173500D02*
X105400D01*
X193400D02*
X205600D01*
X93200Y173300D02*
X105400D01*
X193400D02*
X205600D01*
X93200Y173100D02*
X105400D01*
X193400D02*
X205600D01*
X93200Y172900D02*
X105400D01*
X193400D02*
X205600D01*
X93200Y172700D02*
X105400D01*
X193400D02*
X205600D01*
X93200Y172500D02*
X105400D01*
X193400D02*
X205600D01*
X93200Y172300D02*
X105400D01*
X193400D02*
X205600D01*
X93200Y172100D02*
X105400D01*
X193400D02*
X205600D01*
X93200Y171900D02*
X105400D01*
X193400D02*
X205600D01*
X93200Y171700D02*
X105400D01*
X193400D02*
X205600D01*
X93200Y171500D02*
X105400D01*
X193400D02*
X205600D01*
X93200Y171300D02*
X105400D01*
X193400D02*
X205600D01*
X93200Y171100D02*
X105400D01*
X193400D02*
X205600D01*
X93200Y170900D02*
X105400D01*
X193400D02*
X205600D01*
X93200Y170700D02*
X105400D01*
X193400D02*
X205600D01*
X93200Y170500D02*
X105400D01*
X193400D02*
X205600D01*
X93200Y170300D02*
X105400D01*
X193400D02*
X205600D01*
X93200Y170100D02*
X105400D01*
X193400D02*
X205600D01*
X93200Y169900D02*
X105400D01*
X193400D02*
X205600D01*
X93200Y169700D02*
X205600D01*
X93200Y169500D02*
X205600D01*
X93200Y169300D02*
X205600D01*
X93200Y169100D02*
X205600D01*
X93200Y168900D02*
X205600D01*
X93200Y168700D02*
X205600D01*
X93200Y168500D02*
X205600D01*
X93200Y168300D02*
X205600D01*
X93200Y168100D02*
X205600D01*
X93200Y167900D02*
X205600D01*
X93200Y167700D02*
X205600D01*
X93200Y167500D02*
X205600D01*
X93200Y167300D02*
X205600D01*
X93200Y167100D02*
X205600D01*
X93200Y166900D02*
X205600D01*
X93200Y166700D02*
X205600D01*
X93200Y166500D02*
X205600D01*
X93200Y166300D02*
X205600D01*
X93200Y166100D02*
X205600D01*
X93200Y165900D02*
X205600D01*
X93200Y165700D02*
X205600D01*
X93200Y165500D02*
X205600D01*
X93200Y165300D02*
X205600D01*
X93200Y165100D02*
X205600D01*
X93200Y164900D02*
X205600D01*
X93200Y164700D02*
X205600D01*
X93200Y164500D02*
X205600D01*
X93200Y164300D02*
X205600D01*
X93200Y164100D02*
X205600D01*
X93200Y163900D02*
X205600D01*
X93200Y163700D02*
X205600D01*
X93200Y163500D02*
X205600D01*
X93200Y163300D02*
X205600D01*
X93200Y163100D02*
X205600D01*
X93200Y162900D02*
X205600D01*
X93200Y162700D02*
X205600D01*
X93200Y162500D02*
X205600D01*
X93200Y162300D02*
X205600D01*
X93200Y162100D02*
X205600D01*
X93200Y161900D02*
X205600D01*
X93200Y161700D02*
X205600D01*
X93200Y161500D02*
X205600D01*
X93200Y161300D02*
X205600D01*
X93200Y161100D02*
X205600D01*
X93200Y160900D02*
X205600D01*
X93200Y160700D02*
X205600D01*
X93200Y160500D02*
X205600D01*
X93400Y160300D02*
X205400D01*
X93400Y160100D02*
X205400D01*
X93600Y159900D02*
X205200D01*
X93600Y159700D02*
X205200D01*
X93800Y159500D02*
X205000D01*
X94000Y159300D02*
X204800D01*
X94000Y159100D02*
X204800D01*
X94200Y158900D02*
X204600D01*
X94400Y158700D02*
X204400D01*
X94800Y158500D02*
X204000D01*
X95000Y158300D02*
X203800D01*
X95400Y158100D02*
X203400D01*
X95800Y157900D02*
X202800D01*
X105400Y157700D02*
X193400D01*
X105400Y157500D02*
X193400D01*
X105400Y157300D02*
X193400D01*
X105400Y157100D02*
X193400D01*
X105400Y156900D02*
X107400D01*
X191600D02*
X193400D01*
X105400Y156700D02*
X107400D01*
X191600D02*
X193400D01*
X105400Y156500D02*
X107400D01*
X191600D02*
X193400D01*
X105400Y156300D02*
X193400D01*
X105400Y156100D02*
X193400D01*
X105400Y155900D02*
X193400D01*
X105400Y155700D02*
X193400D01*
X105400Y155500D02*
X193400D01*
X105400Y155300D02*
X193400D01*
X101400Y155100D02*
X197400D01*
X101400Y154900D02*
X197400D01*
X101400Y154700D02*
X197400D01*
X101400Y154500D02*
X197400D01*
X101400Y154300D02*
X197400D01*
X101400Y154100D02*
X197400D01*
X101400Y153900D02*
X197400D01*
X101400Y153700D02*
X197400D01*
X101400Y153500D02*
X197400D01*
X101400Y153300D02*
X197400D01*
X87800Y153100D02*
X211400D01*
X87800Y152900D02*
X211400D01*
X87800Y152700D02*
X211400D01*
X87800Y152500D02*
X211400D01*
X87800Y152300D02*
X211400D01*
X87800Y152100D02*
X211400D01*
X87800Y151900D02*
X211400D01*
X87800Y151700D02*
X211400D01*
X87800Y151500D02*
X211400D01*
X87800Y151300D02*
X211400D01*
X87800Y151100D02*
X211400D01*
X87800Y150900D02*
X167200D01*
X167800D02*
X211400D01*
X87800Y150700D02*
X167200D01*
X167800D02*
X169200D01*
X193200D02*
X211400D01*
X87800Y150500D02*
X167200D01*
X167800D02*
X169200D01*
X193200D02*
X211400D01*
X87800Y150300D02*
X167200D01*
X167800D02*
X169200D01*
X193200D02*
X211400D01*
X87800Y150100D02*
X167200D01*
X167800D02*
X169200D01*
X169800D02*
X192600D01*
X193200D02*
X211400D01*
X87800Y149900D02*
X167200D01*
X167800D02*
X169200D01*
X169800D02*
X192600D01*
X193200D02*
X211400D01*
X87800Y149700D02*
X167200D01*
X167800D02*
X169200D01*
X169800D02*
X192600D01*
X193200D02*
X211400D01*
X87800Y149500D02*
X167200D01*
X167800D02*
X169200D01*
X169800D02*
X192600D01*
X193200D02*
X211400D01*
X87800Y149300D02*
X167200D01*
X167800D02*
X169200D01*
X169800D02*
X192600D01*
X193200D02*
X211400D01*
X87800Y149100D02*
X167200D01*
X167800D02*
X169200D01*
X169800D02*
X192600D01*
X193200D02*
X211400D01*
X87800Y148900D02*
X167200D01*
X167800D02*
X169200D01*
X169800D02*
X192600D01*
X193200D02*
X211400D01*
X87800Y148700D02*
X167200D01*
X167800D02*
X169200D01*
X169800D02*
X192600D01*
X193200D02*
X211400D01*
X87800Y148500D02*
X167200D01*
X167800D02*
X169200D01*
X169800D02*
X192600D01*
X193200D02*
X211400D01*
X87800Y148300D02*
X167200D01*
X167800D02*
X169200D01*
X169800D02*
X192600D01*
X193200D02*
X211400D01*
X87800Y148100D02*
X167200D01*
X167800D02*
X169200D01*
X169800D02*
X192600D01*
X193200D02*
X211400D01*
X87800Y147900D02*
X167200D01*
X167800D02*
X169200D01*
X169800D02*
X192600D01*
X193200D02*
X211400D01*
X87800Y147700D02*
X167200D01*
X167800D02*
X169200D01*
X169800D02*
X192600D01*
X193200D02*
X211400D01*
X87800Y147500D02*
X167200D01*
X167800D02*
X169200D01*
X169800D02*
X192600D01*
X193200D02*
X211400D01*
X87800Y147300D02*
X167200D01*
X167800D02*
X169200D01*
X169800D02*
X192600D01*
X193200D02*
X211400D01*
X87800Y147100D02*
X167200D01*
X167800D02*
X169200D01*
X169800D02*
X178800D01*
X183600D02*
X192600D01*
X193200D02*
X211400D01*
X87800Y146900D02*
X167200D01*
X167800D02*
X169200D01*
X169800D02*
X178800D01*
X183600D02*
X192600D01*
X193200D02*
X211400D01*
X87800Y146700D02*
X167200D01*
X167800D02*
X169200D01*
X169800D02*
X178800D01*
X183600D02*
X192600D01*
X193200D02*
X211400D01*
X87800Y146500D02*
X167200D01*
X167800D02*
X169200D01*
X169800D02*
X171600D01*
X190800D02*
X192600D01*
X193200D02*
X211400D01*
X87800Y146300D02*
X167200D01*
X167800D02*
X169200D01*
X169800D02*
X171600D01*
X190800D02*
X192600D01*
X193200D02*
X211400D01*
X87800Y146100D02*
X167200D01*
X167800D02*
X169200D01*
X169800D02*
X171600D01*
X190800D02*
X192600D01*
X193200D02*
X211400D01*
X87800Y145900D02*
X167200D01*
X167800D02*
X169200D01*
X169800D02*
X178800D01*
X183600D02*
X192600D01*
X193200D02*
X211400D01*
X87800Y145700D02*
X167200D01*
X167800D02*
X169200D01*
X169800D02*
X192600D01*
X193200D02*
X211400D01*
X87800Y145500D02*
X167200D01*
X167800D02*
X169200D01*
X169800D02*
X192600D01*
X193200D02*
X211400D01*
X87800Y145300D02*
X167200D01*
X167800D02*
X169200D01*
X169800D02*
X192600D01*
X193200D02*
X211400D01*
X87800Y145100D02*
X167200D01*
X167800D02*
X169200D01*
X169800D02*
X192600D01*
X193200D02*
X211400D01*
X87800Y144900D02*
X167200D01*
X167800D02*
X169200D01*
X169800D02*
X192600D01*
X193200D02*
X211400D01*
X87800Y144700D02*
X167200D01*
X167800D02*
X169200D01*
X169800D02*
X192600D01*
X193200D02*
X211400D01*
X87800Y144500D02*
X167200D01*
X167800D02*
X169200D01*
X169800D02*
X192600D01*
X193200D02*
X211400D01*
X87800Y144300D02*
X167200D01*
X167800D02*
X169200D01*
X169800D02*
X192600D01*
X193200D02*
X211400D01*
X87800Y144100D02*
X167200D01*
X167800D02*
X169200D01*
X169800D02*
X192600D01*
X193200D02*
X211400D01*
X87800Y143900D02*
X167200D01*
X167800D02*
X169200D01*
X169800D02*
X192600D01*
X193200D02*
X211400D01*
X87800Y143700D02*
X167200D01*
X167800D02*
X169200D01*
X169800D02*
X192600D01*
X193200D02*
X211400D01*
X87800Y143500D02*
X167200D01*
X167800D02*
X169200D01*
X169800D02*
X192600D01*
X193200D02*
X211400D01*
X87800Y143300D02*
X167200D01*
X167800D02*
X169200D01*
X169800D02*
X192600D01*
X193200D02*
X211400D01*
X87800Y143100D02*
X167200D01*
X167800D02*
X169200D01*
X169800D02*
X192600D01*
X193200D02*
X211400D01*
X87800Y142900D02*
X167200D01*
X167800D02*
X169200D01*
X169800D02*
X192600D01*
X193200D02*
X211400D01*
X87800Y142700D02*
X167200D01*
X167800D02*
X169200D01*
X169800D02*
X192600D01*
X193200D02*
X211400D01*
X87800Y142500D02*
X167200D01*
X167800D02*
X169200D01*
X169800D02*
X192600D01*
X193200D02*
X211400D01*
X87800Y142300D02*
X167200D01*
X167800D02*
X169200D01*
X169800D02*
X192600D01*
X193200D02*
X211400D01*
X87800Y142100D02*
X167200D01*
X167800D02*
X169200D01*
X169800D02*
X192600D01*
X193200D02*
X211400D01*
X87800Y141900D02*
X167200D01*
X167800D02*
X169200D01*
X169800D02*
X192600D01*
X193200D02*
X211400D01*
X87800Y141700D02*
X167200D01*
X167800D02*
X169200D01*
X193200D02*
X211400D01*
X87800Y141500D02*
X167200D01*
X167800D02*
X169200D01*
X193200D02*
X211400D01*
X87800Y141300D02*
X167200D01*
X167800D02*
X169200D01*
X193200D02*
X211400D01*
X87800Y141100D02*
X167200D01*
X167800D02*
X211400D01*
X87800Y140900D02*
X167200D01*
X167800D02*
X211400D01*
X87800Y140700D02*
X167200D01*
X167800D02*
X211400D01*
X87800Y140500D02*
X167200D01*
X167800D02*
X211400D01*
X87800Y140300D02*
X167200D01*
X167800D02*
X211400D01*
X87800Y140100D02*
X167200D01*
X167800D02*
X211400D01*
X87800Y139900D02*
X167200D01*
X167800D02*
X211400D01*
X87800Y139700D02*
X167200D01*
X167800D02*
X211400D01*
X87800Y139500D02*
X167200D01*
X167800D02*
X169200D01*
X193200D02*
X211400D01*
X87800Y139300D02*
X167200D01*
X167800D02*
X169200D01*
X193200D02*
X211400D01*
X87800Y139100D02*
X167200D01*
X167800D02*
X169200D01*
X193200D02*
X211400D01*
X87800Y138900D02*
X167200D01*
X167800D02*
X169200D01*
X169800D02*
X192600D01*
X193200D02*
X211400D01*
X87800Y138700D02*
X167200D01*
X167800D02*
X169200D01*
X169800D02*
X192600D01*
X193200D02*
X211400D01*
X87800Y138500D02*
X167200D01*
X167800D02*
X169200D01*
X169800D02*
X192600D01*
X193200D02*
X211400D01*
X87800Y138300D02*
X167200D01*
X167800D02*
X169200D01*
X169800D02*
X192600D01*
X193200D02*
X211400D01*
X87800Y138100D02*
X167200D01*
X167800D02*
X169200D01*
X169800D02*
X192600D01*
X193200D02*
X211400D01*
X87800Y137900D02*
X167200D01*
X167800D02*
X169200D01*
X169800D02*
X192600D01*
X193200D02*
X211400D01*
X87800Y137700D02*
X167200D01*
X167800D02*
X169200D01*
X169800D02*
X192600D01*
X193200D02*
X211400D01*
X87800Y137500D02*
X167200D01*
X167800D02*
X169200D01*
X169800D02*
X192600D01*
X193200D02*
X211400D01*
X87800Y137300D02*
X167200D01*
X167800D02*
X169200D01*
X169800D02*
X192600D01*
X193200D02*
X211400D01*
X87800Y137100D02*
X167200D01*
X167800D02*
X169200D01*
X169800D02*
X192600D01*
X193200D02*
X211400D01*
X87800Y136900D02*
X167200D01*
X167800D02*
X169200D01*
X169800D02*
X192600D01*
X193200D02*
X211400D01*
X87800Y136700D02*
X167200D01*
X167800D02*
X169200D01*
X169800D02*
X192600D01*
X193200D02*
X211400D01*
X87800Y136500D02*
X167200D01*
X167800D02*
X169200D01*
X169800D02*
X192600D01*
X193200D02*
X211400D01*
X87800Y136300D02*
X167200D01*
X167800D02*
X169200D01*
X169800D02*
X192600D01*
X193200D02*
X211400D01*
X87800Y136100D02*
X167200D01*
X167800D02*
X169200D01*
X169800D02*
X192600D01*
X193200D02*
X211400D01*
X87800Y135900D02*
X167200D01*
X167800D02*
X169200D01*
X169800D02*
X178800D01*
X183600D02*
X192600D01*
X193200D02*
X211400D01*
X87800Y135700D02*
X167200D01*
X167800D02*
X169200D01*
X169800D02*
X178800D01*
X183600D02*
X192600D01*
X193200D02*
X211400D01*
X87800Y135500D02*
X167200D01*
X167800D02*
X169200D01*
X169800D02*
X178800D01*
X183600D02*
X192600D01*
X193200D02*
X211400D01*
X87800Y135300D02*
X167200D01*
X167800D02*
X169200D01*
X169800D02*
X171600D01*
X190800D02*
X192600D01*
X193200D02*
X211400D01*
X87800Y135100D02*
X167200D01*
X167800D02*
X169200D01*
X169800D02*
X171600D01*
X190800D02*
X192600D01*
X193200D02*
X211400D01*
X87800Y134900D02*
X167200D01*
X167800D02*
X169200D01*
X169800D02*
X171600D01*
X190800D02*
X192600D01*
X193200D02*
X211400D01*
X87800Y134700D02*
X167200D01*
X167800D02*
X169200D01*
X169800D02*
X178800D01*
X183600D02*
X192600D01*
X193200D02*
X211400D01*
X87800Y134500D02*
X167200D01*
X167800D02*
X169200D01*
X169800D02*
X192600D01*
X193200D02*
X211400D01*
X87800Y134300D02*
X167200D01*
X167800D02*
X169200D01*
X169800D02*
X192600D01*
X193200D02*
X211400D01*
X87800Y134100D02*
X167200D01*
X167800D02*
X169200D01*
X169800D02*
X192600D01*
X193200D02*
X211400D01*
X87800Y133900D02*
X167200D01*
X167800D02*
X169200D01*
X169800D02*
X192600D01*
X193200D02*
X211400D01*
X87800Y133700D02*
X167200D01*
X167800D02*
X169200D01*
X169800D02*
X192600D01*
X193200D02*
X211400D01*
X87800Y133500D02*
X167200D01*
X167800D02*
X169200D01*
X169800D02*
X192600D01*
X193200D02*
X211400D01*
X87800Y133300D02*
X167200D01*
X167800D02*
X169200D01*
X169800D02*
X192600D01*
X193200D02*
X211400D01*
X87800Y133100D02*
X167200D01*
X167800D02*
X169200D01*
X169800D02*
X192600D01*
X193200D02*
X211400D01*
X87800Y132900D02*
X167200D01*
X167800D02*
X169200D01*
X169800D02*
X192600D01*
X193200D02*
X211400D01*
X87800Y132700D02*
X167200D01*
X167800D02*
X169200D01*
X169800D02*
X192600D01*
X193200D02*
X211400D01*
X87800Y132500D02*
X167200D01*
X167800D02*
X169200D01*
X169800D02*
X192600D01*
X193200D02*
X211400D01*
X87800Y132300D02*
X167200D01*
X167800D02*
X169200D01*
X169800D02*
X192600D01*
X193200D02*
X211400D01*
X87800Y132100D02*
X167200D01*
X167800D02*
X169200D01*
X169800D02*
X192600D01*
X193200D02*
X211400D01*
X87800Y131900D02*
X167200D01*
X167800D02*
X169200D01*
X169800D02*
X192600D01*
X193200D02*
X211400D01*
X87800Y131700D02*
X167200D01*
X167800D02*
X169200D01*
X169800D02*
X192600D01*
X193200D02*
X211400D01*
X87800Y131500D02*
X167200D01*
X167800D02*
X169200D01*
X169800D02*
X192600D01*
X193200D02*
X211400D01*
X87800Y131300D02*
X167200D01*
X167800D02*
X169200D01*
X169800D02*
X192600D01*
X193200D02*
X211400D01*
X87800Y131100D02*
X167200D01*
X167800D02*
X169200D01*
X169800D02*
X192600D01*
X193200D02*
X211400D01*
X87800Y130900D02*
X167200D01*
X167800D02*
X169200D01*
X169800D02*
X192600D01*
X193200D02*
X211400D01*
X87800Y130700D02*
X167200D01*
X167800D02*
X169200D01*
X169800D02*
X192600D01*
X193200D02*
X211400D01*
X87800Y130500D02*
X167200D01*
X167800D02*
X169200D01*
X193200D02*
X211400D01*
X87800Y130300D02*
X167200D01*
X167800D02*
X169200D01*
X193200D02*
X211400D01*
X87800Y130100D02*
X167200D01*
X167800D02*
X169200D01*
X193200D02*
X211400D01*
X87800Y129900D02*
X211400D01*
X87800Y129700D02*
X211400D01*
X87800Y129500D02*
X211400D01*
X87800Y129300D02*
X211400D01*
X87800Y129100D02*
X211400D01*
X87800Y128900D02*
X211400D01*
X87800Y128700D02*
X211400D01*
X87800Y128500D02*
X211400D01*
X87800Y128300D02*
X211400D01*
X87800Y128100D02*
X211400D01*
X87800Y127900D02*
X211400D01*
X87800Y127700D02*
X211400D01*
X87800Y127500D02*
X211400D01*
X164700Y122500D02*
X167300D01*
X164700Y122300D02*
X167300D01*
X60900Y122100D02*
X63900D01*
X70900D02*
X73900D01*
X164700D02*
X167300D01*
X43700Y121900D02*
X49100D01*
X53500D02*
X56300D01*
X60100D02*
X64700D01*
X70100D02*
X74700D01*
X81700D02*
X84500D01*
X89300D02*
X91900D01*
X105700D02*
X110900D01*
X164700D02*
X167300D01*
X43700Y121700D02*
X49900D01*
X53500D02*
X56300D01*
X59500D02*
X65100D01*
X69500D02*
X75100D01*
X81700D02*
X84500D01*
X89100D02*
X91900D01*
X105700D02*
X111700D01*
X164700D02*
X167300D01*
X43700Y121500D02*
X50300D01*
X53500D02*
X56300D01*
X59100D02*
X65100D01*
X69100D02*
X75100D01*
X81700D02*
X84500D01*
X89100D02*
X91900D01*
X105700D02*
X112100D01*
X164700D02*
X167300D01*
X43700Y121300D02*
X50700D01*
X53500D02*
X56300D01*
X58900D02*
X65100D01*
X68900D02*
X75100D01*
X81900D02*
X84700D01*
X89100D02*
X91700D01*
X105700D02*
X112500D01*
X164700D02*
X167300D01*
X43700Y121100D02*
X50900D01*
X53500D02*
X56300D01*
X58700D02*
X65100D01*
X68500D02*
X75100D01*
X81900D02*
X84700D01*
X89100D02*
X91700D01*
X105700D02*
X112700D01*
X164700D02*
X167300D01*
X43700Y120900D02*
X51100D01*
X53500D02*
X56300D01*
X58500D02*
X65100D01*
X68300D02*
X75100D01*
X82100D02*
X84700D01*
X88900D02*
X91700D01*
X105700D02*
X112900D01*
X164700D02*
X167300D01*
X43700Y120700D02*
X51100D01*
X53500D02*
X56300D01*
X58300D02*
X65100D01*
X68100D02*
X75100D01*
X82100D02*
X84900D01*
X88900D02*
X91500D01*
X105700D02*
X113100D01*
X164700D02*
X167300D01*
X43700Y120500D02*
X51300D01*
X53500D02*
X56300D01*
X58300D02*
X65100D01*
X67900D02*
X75100D01*
X82100D02*
X84900D01*
X88900D02*
X91500D01*
X105700D02*
X113300D01*
X164700D02*
X167300D01*
X43700Y120300D02*
X51500D01*
X53500D02*
X56300D01*
X58100D02*
X61700D01*
X63100D02*
X65100D01*
X67700D02*
X75100D01*
X82300D02*
X84900D01*
X88700D02*
X91300D01*
X105700D02*
X113300D01*
X164700D02*
X167300D01*
X43700Y120100D02*
X46300D01*
X47900D02*
X51500D01*
X53500D02*
X56300D01*
X58100D02*
X61100D01*
X63900D02*
X65100D01*
X67500D02*
X71700D01*
X73300D02*
X75100D01*
X82300D02*
X84900D01*
X88700D02*
X91300D01*
X105700D02*
X108300D01*
X109700D02*
X113500D01*
X164700D02*
X167300D01*
X43700Y119900D02*
X46300D01*
X48300D02*
X51500D01*
X53500D02*
X56300D01*
X57900D02*
X60900D01*
X64300D02*
X65100D01*
X67300D02*
X71100D01*
X74100D02*
X75100D01*
X82300D02*
X85100D01*
X88700D02*
X91300D01*
X105700D02*
X108300D01*
X110300D02*
X113500D01*
X164700D02*
X167300D01*
X43700Y119700D02*
X46300D01*
X48500D02*
X51500D01*
X53500D02*
X56300D01*
X57900D02*
X60700D01*
X64700D02*
X65100D01*
X67300D02*
X70700D01*
X74500D02*
X75100D01*
X82500D02*
X85100D01*
X88500D02*
X91100D01*
X105700D02*
X108300D01*
X110500D02*
X113500D01*
X164700D02*
X167300D01*
X43700Y119500D02*
X46300D01*
X48700D02*
X51700D01*
X53500D02*
X56300D01*
X57900D02*
X60700D01*
X67100D02*
X70300D01*
X82500D02*
X85100D01*
X88500D02*
X91100D01*
X105700D02*
X108300D01*
X110700D02*
X113500D01*
X164700D02*
X167300D01*
X43700Y119300D02*
X46300D01*
X48900D02*
X51700D01*
X53500D02*
X56300D01*
X57900D02*
X60700D01*
X66900D02*
X70100D01*
X82500D02*
X85300D01*
X88500D02*
X91100D01*
X105700D02*
X108300D01*
X110900D02*
X113700D01*
X164700D02*
X167300D01*
X43700Y119100D02*
X46300D01*
X48900D02*
X51700D01*
X53500D02*
X56300D01*
X57900D02*
X60700D01*
X66900D02*
X69900D01*
X82700D02*
X85300D01*
X88300D02*
X90900D01*
X105700D02*
X108300D01*
X110900D02*
X113700D01*
X117500D02*
X119900D01*
X138900D02*
X141100D01*
X148500D02*
X150100D01*
X153500D02*
X155700D01*
X161700D02*
X163500D01*
X164700D02*
X167300D01*
X43700Y118900D02*
X46300D01*
X48900D02*
X51700D01*
X53500D02*
X56300D01*
X57900D02*
X60700D01*
X66700D02*
X69700D01*
X82700D02*
X85300D01*
X88300D02*
X90900D01*
X105700D02*
X108300D01*
X110900D02*
X113700D01*
X116700D02*
X120500D01*
X123300D02*
X125900D01*
X128300D02*
X130900D01*
X133100D02*
X135500D01*
X138300D02*
X141700D01*
X144900D02*
X147300D01*
X148100D02*
X150100D01*
X152900D02*
X156300D01*
X161100D02*
X164100D01*
X164700D02*
X167300D01*
X43700Y118700D02*
X46300D01*
X48900D02*
X51700D01*
X53500D02*
X56300D01*
X57900D02*
X60900D01*
X66700D02*
X69700D01*
X82700D02*
X85500D01*
X88300D02*
X90900D01*
X105700D02*
X108300D01*
X110900D02*
X113700D01*
X116300D02*
X121100D01*
X123300D02*
X125900D01*
X128300D02*
X130900D01*
X133100D02*
X135500D01*
X137900D02*
X142100D01*
X144900D02*
X147300D01*
X147900D02*
X150100D01*
X152500D02*
X156700D01*
X160700D02*
X164300D01*
X164700D02*
X167300D01*
X43700Y118500D02*
X46300D01*
X48900D02*
X51500D01*
X53500D02*
X56300D01*
X57900D02*
X61100D01*
X66700D02*
X69500D01*
X82900D02*
X85500D01*
X88300D02*
X90700D01*
X105700D02*
X108300D01*
X110900D02*
X113700D01*
X115900D02*
X121300D01*
X123300D02*
X125900D01*
X128300D02*
X130900D01*
X133100D02*
X135500D01*
X137500D02*
X142300D01*
X144900D02*
X147300D01*
X147700D02*
X150100D01*
X152100D02*
X156900D01*
X160300D02*
X164500D01*
X164700D02*
X167300D01*
X43700Y118300D02*
X46300D01*
X48900D02*
X51500D01*
X53500D02*
X56300D01*
X57900D02*
X61300D01*
X66500D02*
X69500D01*
X82900D02*
X85500D01*
X88100D02*
X90700D01*
X105700D02*
X108300D01*
X110900D02*
X113700D01*
X115700D02*
X121500D01*
X123500D02*
X126100D01*
X128300D02*
X131100D01*
X133100D02*
X135300D01*
X137300D02*
X142500D01*
X144900D02*
X147300D01*
X147500D02*
X150100D01*
X151900D02*
X157100D01*
X160100D02*
X167300D01*
X43700Y118100D02*
X46300D01*
X48700D02*
X51500D01*
X53500D02*
X56300D01*
X58100D02*
X61700D01*
X66500D02*
X69300D01*
X82900D02*
X85700D01*
X88100D02*
X90700D01*
X105700D02*
X108300D01*
X110900D02*
X113700D01*
X115500D02*
X121900D01*
X123500D02*
X126100D01*
X128100D02*
X131100D01*
X132900D02*
X135300D01*
X137100D02*
X142700D01*
X144900D02*
X150100D01*
X151700D02*
X157300D01*
X159900D02*
X167300D01*
X43700Y117900D02*
X46300D01*
X48700D02*
X51300D01*
X53500D02*
X56300D01*
X58100D02*
X62100D01*
X66500D02*
X69300D01*
X83100D02*
X85700D01*
X88100D02*
X90500D01*
X105700D02*
X108300D01*
X110900D02*
X113700D01*
X115300D02*
X121900D01*
X123500D02*
X126100D01*
X128100D02*
X131100D01*
X132900D02*
X135300D01*
X136900D02*
X142900D01*
X144900D02*
X150100D01*
X151500D02*
X157500D01*
X159900D02*
X167300D01*
X43700Y117700D02*
X46300D01*
X48500D02*
X51300D01*
X53500D02*
X56300D01*
X58300D02*
X62500D01*
X66500D02*
X69300D01*
X83100D02*
X85700D01*
X87900D02*
X90500D01*
X105700D02*
X108300D01*
X110700D02*
X113500D01*
X115100D02*
X122100D01*
X123500D02*
X126100D01*
X128100D02*
X131100D01*
X132900D02*
X135100D01*
X136700D02*
X143100D01*
X144900D02*
X150100D01*
X151300D02*
X157700D01*
X159700D02*
X167300D01*
X43700Y117500D02*
X46300D01*
X48100D02*
X51100D01*
X53500D02*
X56300D01*
X58300D02*
X62900D01*
X66300D02*
X69100D01*
X83100D02*
X85700D01*
X87900D02*
X90500D01*
X105700D02*
X108300D01*
X110700D02*
X113500D01*
X114900D02*
X122300D01*
X123700D02*
X126100D01*
X128100D02*
X131300D01*
X132900D02*
X135100D01*
X136700D02*
X139500D01*
X140300D02*
X143100D01*
X144900D02*
X150100D01*
X151300D02*
X154100D01*
X154900D02*
X157700D01*
X159500D02*
X167300D01*
X43700Y117300D02*
X46300D01*
X47700D02*
X51100D01*
X53500D02*
X56300D01*
X58500D02*
X63300D01*
X66300D02*
X69100D01*
X83300D02*
X85900D01*
X87900D02*
X90300D01*
X105700D02*
X108300D01*
X110500D02*
X113500D01*
X114900D02*
X118100D01*
X119100D02*
X122500D01*
X123700D02*
X126300D01*
X127900D02*
X131300D01*
X132900D02*
X135100D01*
X136500D02*
X139300D01*
X140700D02*
X143300D01*
X144900D02*
X150100D01*
X151100D02*
X153900D01*
X155300D02*
X157900D01*
X159500D02*
X162700D01*
X163500D02*
X167300D01*
X43700Y117100D02*
X50900D01*
X53500D02*
X56300D01*
X58700D02*
X63700D01*
X66300D02*
X69100D01*
X83300D02*
X85900D01*
X87700D02*
X90300D01*
X105700D02*
X108300D01*
X110300D02*
X113300D01*
X114700D02*
X117700D01*
X119500D02*
X122500D01*
X123700D02*
X126300D01*
X127900D02*
X131300D01*
X132700D02*
X135100D01*
X136300D02*
X139100D01*
X140900D02*
X143300D01*
X144900D02*
X148500D01*
X149500D02*
X150100D01*
X150900D02*
X153700D01*
X155500D02*
X157900D01*
X159300D02*
X162300D01*
X163900D02*
X167300D01*
X43700Y116900D02*
X50700D01*
X53500D02*
X56300D01*
X58900D02*
X64100D01*
X66300D02*
X69100D01*
X83300D02*
X85900D01*
X87700D02*
X90300D01*
X105700D02*
X108300D01*
X109700D02*
X113300D01*
X114700D02*
X117500D01*
X119700D02*
X122500D01*
X123900D02*
X126300D01*
X127900D02*
X131300D01*
X132700D02*
X134900D01*
X136300D02*
X138900D01*
X140900D02*
X143300D01*
X144900D02*
X148100D01*
X150900D02*
X153500D01*
X155500D02*
X157900D01*
X159300D02*
X162100D01*
X164100D02*
X167300D01*
X43700Y116700D02*
X50500D01*
X53500D02*
X56300D01*
X59100D02*
X64300D01*
X66300D02*
X69100D01*
X83500D02*
X86100D01*
X87700D02*
X90100D01*
X105700D02*
X113100D01*
X114500D02*
X117300D01*
X119900D02*
X122700D01*
X123900D02*
X126300D01*
X127700D02*
X131500D01*
X132700D02*
X134900D01*
X136300D02*
X138700D01*
X141100D02*
X143500D01*
X144900D02*
X147900D01*
X150900D02*
X153300D01*
X155700D02*
X158100D01*
X159100D02*
X161900D01*
X164300D02*
X167300D01*
X43700Y116500D02*
X50100D01*
X53500D02*
X56300D01*
X59500D02*
X64500D01*
X66300D02*
X69100D01*
X83500D02*
X86100D01*
X87500D02*
X90100D01*
X105700D02*
X112900D01*
X114500D02*
X117300D01*
X120100D02*
X122700D01*
X123900D02*
X126500D01*
X127700D02*
X131500D01*
X132700D02*
X134900D01*
X136100D02*
X138700D01*
X141100D02*
X143500D01*
X144900D02*
X147700D01*
X150700D02*
X153300D01*
X155700D02*
X158100D01*
X159100D02*
X161900D01*
X164500D02*
X167300D01*
X43700Y116300D02*
X49700D01*
X53500D02*
X56300D01*
X59700D02*
X64700D01*
X66300D02*
X69100D01*
X83500D02*
X86100D01*
X87500D02*
X90100D01*
X105700D02*
X112900D01*
X114500D02*
X117100D01*
X120100D02*
X122700D01*
X124100D02*
X126500D01*
X127700D02*
X131500D01*
X132500D02*
X134700D01*
X136100D02*
X138500D01*
X141100D02*
X143500D01*
X144900D02*
X147700D01*
X150700D02*
X153100D01*
X155700D02*
X158100D01*
X159100D02*
X161700D01*
X164500D02*
X167300D01*
X43700Y116100D02*
X49100D01*
X53500D02*
X56300D01*
X60100D02*
X64900D01*
X66300D02*
X69100D01*
X76500D02*
X80900D01*
X83700D02*
X86300D01*
X87500D02*
X89900D01*
X105700D02*
X112700D01*
X114500D02*
X117100D01*
X120300D02*
X122900D01*
X124100D02*
X126500D01*
X127700D02*
X131500D01*
X132500D02*
X134700D01*
X136100D02*
X138500D01*
X141100D02*
X143500D01*
X144900D02*
X147500D01*
X150700D02*
X153100D01*
X155700D02*
X158100D01*
X159100D02*
X161700D01*
X164700D02*
X167300D01*
X43700Y115900D02*
X49500D01*
X53500D02*
X56300D01*
X60700D02*
X65100D01*
X66300D02*
X69100D01*
X76500D02*
X80900D01*
X83700D02*
X86300D01*
X87500D02*
X89900D01*
X105700D02*
X112300D01*
X114300D02*
X116900D01*
X120300D02*
X122900D01*
X124100D02*
X126500D01*
X127500D02*
X131700D01*
X132500D02*
X134700D01*
X135900D02*
X138500D01*
X141100D02*
X143500D01*
X144900D02*
X147500D01*
X150500D02*
X153100D01*
X155700D02*
X158100D01*
X158900D02*
X161700D01*
X164700D02*
X167300D01*
X43700Y115700D02*
X49900D01*
X53500D02*
X56300D01*
X61100D02*
X65100D01*
X66300D02*
X69100D01*
X76500D02*
X80900D01*
X83700D02*
X86300D01*
X87300D02*
X89700D01*
X105700D02*
X112100D01*
X114300D02*
X116900D01*
X120300D02*
X122900D01*
X124100D02*
X126500D01*
X127500D02*
X129300D01*
X129500D02*
X131700D01*
X132500D02*
X134700D01*
X135900D02*
X143500D01*
X144900D02*
X147500D01*
X150500D02*
X158100D01*
X158900D02*
X161500D01*
X164700D02*
X167300D01*
X43700Y115500D02*
X50100D01*
X53500D02*
X56300D01*
X61500D02*
X65300D01*
X66300D02*
X69100D01*
X76500D02*
X80900D01*
X83900D02*
X86500D01*
X87300D02*
X89700D01*
X105700D02*
X111700D01*
X114300D02*
X116900D01*
X120300D02*
X122900D01*
X124300D02*
X126700D01*
X127500D02*
X129300D01*
X129500D02*
X131700D01*
X132500D02*
X134500D01*
X135900D02*
X143500D01*
X144900D02*
X147500D01*
X150500D02*
X158100D01*
X158900D02*
X161500D01*
X164700D02*
X167300D01*
X43700Y115300D02*
X46300D01*
X47100D02*
X50100D01*
X53500D02*
X56300D01*
X61900D02*
X65300D01*
X66300D02*
X69300D01*
X76500D02*
X80900D01*
X83900D02*
X86500D01*
X87300D02*
X89700D01*
X105700D02*
X111300D01*
X114300D02*
X116900D01*
X120300D02*
X122900D01*
X124300D02*
X126700D01*
X127500D02*
X129300D01*
X129700D02*
X131700D01*
X132300D02*
X134500D01*
X135900D02*
X143700D01*
X144900D02*
X147300D01*
X150500D02*
X158300D01*
X158900D02*
X161500D01*
X164700D02*
X167300D01*
X43700Y115100D02*
X46300D01*
X47500D02*
X50300D01*
X53500D02*
X56300D01*
X62100D02*
X65500D01*
X66500D02*
X69300D01*
X76500D02*
X80900D01*
X83900D02*
X86500D01*
X87100D02*
X89500D01*
X105700D02*
X110700D01*
X114300D02*
X116900D01*
X120300D02*
X122900D01*
X124300D02*
X126700D01*
X127300D02*
X129300D01*
X129700D02*
X131700D01*
X132300D02*
X134500D01*
X135900D02*
X143700D01*
X144900D02*
X147300D01*
X150500D02*
X158300D01*
X158900D02*
X161500D01*
X164700D02*
X167300D01*
X43700Y114900D02*
X46300D01*
X47700D02*
X50500D01*
X53500D02*
X56300D01*
X62300D02*
X65500D01*
X66500D02*
X69300D01*
X76500D02*
X80900D01*
X84100D02*
X86500D01*
X87100D02*
X89500D01*
X105700D02*
X108300D01*
X114300D02*
X116900D01*
X120300D02*
X122900D01*
X124500D02*
X126700D01*
X127300D02*
X129100D01*
X129700D02*
X131900D01*
X132300D02*
X134300D01*
X135900D02*
X143700D01*
X144900D02*
X147300D01*
X150500D02*
X158300D01*
X158900D02*
X161500D01*
X164700D02*
X167300D01*
X43700Y114700D02*
X46300D01*
X47700D02*
X50700D01*
X53500D02*
X56300D01*
X62500D02*
X65500D01*
X66500D02*
X69500D01*
X76500D02*
X80900D01*
X84100D02*
X86700D01*
X87100D02*
X89500D01*
X105700D02*
X108300D01*
X114300D02*
X116900D01*
X120300D02*
X122900D01*
X124500D02*
X126900D01*
X127300D02*
X129100D01*
X129700D02*
X131900D01*
X132300D02*
X134300D01*
X135900D02*
X143700D01*
X144900D02*
X147300D01*
X150500D02*
X158300D01*
X158900D02*
X161500D01*
X164700D02*
X167300D01*
X43700Y114500D02*
X46300D01*
X47900D02*
X50700D01*
X53500D02*
X56300D01*
X62700D02*
X65500D01*
X66500D02*
X69500D01*
X84100D02*
X86700D01*
X86900D02*
X89300D01*
X105700D02*
X108300D01*
X114300D02*
X116900D01*
X120300D02*
X122900D01*
X124500D02*
X126900D01*
X127100D02*
X129100D01*
X129900D02*
X131900D01*
X132300D02*
X134300D01*
X135900D02*
X143700D01*
X144900D02*
X147300D01*
X150500D02*
X158300D01*
X158900D02*
X161500D01*
X164700D02*
X167300D01*
X43700Y114300D02*
X46300D01*
X48100D02*
X50900D01*
X53500D02*
X56300D01*
X62700D02*
X65500D01*
X66700D02*
X69700D01*
X84300D02*
X86700D01*
X86900D02*
X89300D01*
X105700D02*
X108300D01*
X114300D02*
X116900D01*
X120300D02*
X122900D01*
X124500D02*
X126900D01*
X127100D02*
X128900D01*
X129900D02*
X131900D01*
X132100D02*
X134300D01*
X135900D02*
X138500D01*
X144900D02*
X147300D01*
X150500D02*
X153100D01*
X158900D02*
X161500D01*
X164700D02*
X167300D01*
X43700Y114100D02*
X46300D01*
X48100D02*
X51100D01*
X53500D02*
X56300D01*
X62700D02*
X65500D01*
X66700D02*
X69900D01*
X84300D02*
X89300D01*
X105700D02*
X108300D01*
X114500D02*
X117100D01*
X120100D02*
X122700D01*
X124700D02*
X126900D01*
X127100D02*
X128900D01*
X129900D02*
X134100D01*
X135900D02*
X138500D01*
X144900D02*
X147300D01*
X150500D02*
X153100D01*
X158900D02*
X161700D01*
X164500D02*
X167300D01*
X43700Y113900D02*
X46300D01*
X48300D02*
X51100D01*
X53500D02*
X56300D01*
X62700D02*
X65500D01*
X66700D02*
X70100D01*
X84500D02*
X89100D01*
X105700D02*
X108300D01*
X114500D02*
X117100D01*
X120100D02*
X122700D01*
X124700D02*
X128900D01*
X129900D02*
X134100D01*
X136100D02*
X138500D01*
X144900D02*
X147300D01*
X150700D02*
X153100D01*
X159100D02*
X161700D01*
X164500D02*
X167300D01*
X43700Y113700D02*
X46300D01*
X48500D02*
X51300D01*
X53500D02*
X56300D01*
X57900D02*
X58300D01*
X62700D02*
X65500D01*
X66900D02*
X70300D01*
X74700D02*
X75100D01*
X84500D02*
X89100D01*
X105700D02*
X108300D01*
X114500D02*
X117100D01*
X120100D02*
X122700D01*
X124700D02*
X128900D01*
X130100D02*
X134100D01*
X136100D02*
X138700D01*
X144900D02*
X147300D01*
X150700D02*
X153300D01*
X159100D02*
X161700D01*
X164300D02*
X167300D01*
X43700Y113500D02*
X46300D01*
X48500D02*
X51500D01*
X53500D02*
X56300D01*
X57900D02*
X58700D01*
X62700D02*
X65500D01*
X66900D02*
X70500D01*
X74300D02*
X75100D01*
X84500D02*
X89100D01*
X105700D02*
X108300D01*
X114500D02*
X117300D01*
X119900D02*
X122700D01*
X124900D02*
X128700D01*
X130100D02*
X133900D01*
X136100D02*
X138700D01*
X144900D02*
X147300D01*
X150700D02*
X153300D01*
X159100D02*
X161900D01*
X164300D02*
X167300D01*
X43700Y113300D02*
X46300D01*
X48700D02*
X51500D01*
X53500D02*
X56300D01*
X57900D02*
X58900D01*
X62500D02*
X65500D01*
X67100D02*
X70900D01*
X73700D02*
X75100D01*
X84700D02*
X88900D01*
X105700D02*
X108300D01*
X114700D02*
X117500D01*
X119700D02*
X122500D01*
X124900D02*
X128700D01*
X130100D02*
X133900D01*
X136100D02*
X138900D01*
X144900D02*
X147300D01*
X150700D02*
X153500D01*
X159100D02*
X162100D01*
X164100D02*
X167300D01*
X43700Y113100D02*
X46300D01*
X48700D02*
X51700D01*
X53500D02*
X56300D01*
X57900D02*
X59500D01*
X62300D02*
X65300D01*
X67300D02*
X71500D01*
X73100D02*
X75100D01*
X84700D02*
X88900D01*
X105700D02*
X108300D01*
X114700D02*
X117700D01*
X119500D02*
X122500D01*
X124900D02*
X128700D01*
X130100D02*
X133900D01*
X136300D02*
X139100D01*
X142500D02*
X142900D01*
X144900D02*
X147300D01*
X150900D02*
X153700D01*
X157100D02*
X157500D01*
X159300D02*
X162300D01*
X163900D02*
X167300D01*
X43700Y112900D02*
X46300D01*
X48900D02*
X51900D01*
X53500D02*
X56300D01*
X57900D02*
X60100D01*
X61700D02*
X65300D01*
X67300D02*
X75100D01*
X84700D02*
X88900D01*
X105700D02*
X108300D01*
X114900D02*
X118100D01*
X119100D02*
X122300D01*
X124900D02*
X128700D01*
X130300D02*
X133900D01*
X136300D02*
X139300D01*
X142100D02*
X142900D01*
X144900D02*
X147300D01*
X150900D02*
X153900D01*
X156700D02*
X157500D01*
X159300D02*
X162700D01*
X163500D02*
X167300D01*
X43700Y112700D02*
X46300D01*
X49100D02*
X51900D01*
X53500D02*
X56300D01*
X57900D02*
X65100D01*
X67500D02*
X75100D01*
X84900D02*
X88700D01*
X105700D02*
X108300D01*
X114900D02*
X122300D01*
X125100D02*
X128500D01*
X130300D02*
X133700D01*
X136500D02*
X139900D01*
X141300D02*
X142900D01*
X144900D02*
X147300D01*
X151100D02*
X154500D01*
X155900D02*
X157500D01*
X159300D02*
X167300D01*
X43700Y112500D02*
X46300D01*
X49100D02*
X52100D01*
X53500D02*
X56300D01*
X57900D02*
X65100D01*
X67700D02*
X75100D01*
X84900D02*
X88700D01*
X105700D02*
X108300D01*
X115100D02*
X122100D01*
X125100D02*
X128500D01*
X130300D02*
X133700D01*
X136500D02*
X142900D01*
X144900D02*
X147300D01*
X151100D02*
X157500D01*
X159500D02*
X167300D01*
X43700Y112300D02*
X46300D01*
X49300D02*
X52100D01*
X53500D02*
X56300D01*
X57900D02*
X64900D01*
X67900D02*
X75100D01*
X84900D02*
X88700D01*
X105700D02*
X108300D01*
X115300D02*
X121900D01*
X125100D02*
X128500D01*
X130300D02*
X133700D01*
X136700D02*
X142900D01*
X144900D02*
X147300D01*
X151300D02*
X157500D01*
X159700D02*
X167300D01*
X43700Y112100D02*
X46300D01*
X49300D02*
X52300D01*
X53500D02*
X56300D01*
X57900D02*
X64700D01*
X68100D02*
X75100D01*
X85100D02*
X88500D01*
X105700D02*
X108300D01*
X115500D02*
X121700D01*
X125300D02*
X128300D01*
X130500D02*
X133500D01*
X136900D02*
X142900D01*
X144900D02*
X147300D01*
X151500D02*
X157500D01*
X159700D02*
X167300D01*
X43700Y111900D02*
X46300D01*
X49500D02*
X52500D01*
X53500D02*
X56300D01*
X57900D02*
X64500D01*
X68500D02*
X75100D01*
X85100D02*
X88500D01*
X105700D02*
X108300D01*
X115700D02*
X121500D01*
X125300D02*
X128300D01*
X130500D02*
X133500D01*
X137100D02*
X142900D01*
X144900D02*
X147300D01*
X151700D02*
X157500D01*
X159900D02*
X164500D01*
X164700D02*
X167300D01*
X43700Y111700D02*
X46300D01*
X49700D02*
X52500D01*
X53500D02*
X56300D01*
X57900D02*
X64300D01*
X68700D02*
X75100D01*
X85100D02*
X88500D01*
X105700D02*
X108300D01*
X115900D02*
X121300D01*
X125300D02*
X128300D01*
X130500D02*
X133500D01*
X137300D02*
X142900D01*
X144900D02*
X147300D01*
X151900D02*
X157500D01*
X160100D02*
X164300D01*
X164700D02*
X167300D01*
X43700Y111500D02*
X46300D01*
X49700D02*
X52700D01*
X53500D02*
X56300D01*
X58100D02*
X63900D01*
X69100D02*
X74900D01*
X85300D02*
X88300D01*
X105700D02*
X108300D01*
X116300D02*
X120900D01*
X125500D02*
X128300D01*
X130500D02*
X133500D01*
X137700D02*
X142700D01*
X144900D02*
X147300D01*
X152300D02*
X157300D01*
X160500D02*
X164100D01*
X164700D02*
X167300D01*
X43700Y111300D02*
X46300D01*
X49900D02*
X52900D01*
X53500D02*
X56300D01*
X58700D02*
X63300D01*
X69700D02*
X74300D01*
X85300D02*
X88300D01*
X105700D02*
X108300D01*
X116700D02*
X120500D01*
X125500D02*
X128100D01*
X130700D02*
X133300D01*
X138100D02*
X142300D01*
X144900D02*
X147300D01*
X152700D02*
X156900D01*
X160700D02*
X163900D01*
X164700D02*
X167300D01*
X59500Y111100D02*
X62500D01*
X70500D02*
X73300D01*
X117300D02*
X119900D01*
X138700D02*
X141500D01*
X153300D02*
X156100D01*
X161300D02*
X163300D01*
X100100Y108500D02*
X101500D01*
X99700Y108300D02*
X101700D01*
X99500Y108100D02*
X101900D01*
X99100Y107900D02*
X101900D01*
X98900Y107700D02*
X101900D01*
X98700Y107500D02*
X101900D01*
X98500Y107300D02*
X101900D01*
X98300Y107100D02*
X101900D01*
X98100Y106900D02*
X99900D01*
X100300D02*
X101900D01*
X98100Y106700D02*
X99700D01*
X100300D02*
X101900D01*
X97900Y106500D02*
X99500D01*
X100300D02*
X101900D01*
X97700Y106300D02*
X99300D01*
X100100D02*
X101700D01*
X97500Y106100D02*
X99100D01*
X100100D02*
X101700D01*
X97300Y105900D02*
X98900D01*
X100100D02*
X101700D01*
X97300Y105700D02*
X98700D01*
X99900D02*
X101500D01*
X97100Y105500D02*
X98700D01*
X99900D02*
X101500D01*
X96900Y105300D02*
X98500D01*
X99700D02*
X101300D01*
X96700Y105100D02*
X98300D01*
X99700D02*
X101300D01*
X96700Y104900D02*
X98100D01*
X99500D02*
X101100D01*
X96500Y104700D02*
X98100D01*
X99500D02*
X101100D01*
X96300Y104500D02*
X97900D01*
X99300D02*
X100900D01*
X151100D02*
X151900D01*
X96300Y104300D02*
X97700D01*
X99300D02*
X100900D01*
X150900D02*
X152100D01*
X96100Y104100D02*
X97700D01*
X99100D02*
X100700D01*
X150700D02*
X152100D01*
X95900Y103900D02*
X97500D01*
X98900D02*
X100500D01*
X150500D02*
X152100D01*
X95900Y103700D02*
X97300D01*
X98900D02*
X100500D01*
X150300D02*
X152100D01*
X95700Y103500D02*
X97300D01*
X98700D02*
X100300D01*
X150100D02*
X151900D01*
X95500Y103300D02*
X97100D01*
X98500D02*
X100100D01*
X150100D02*
X151900D01*
X95500Y103100D02*
X96900D01*
X98500D02*
X100100D01*
X149900D02*
X151700D01*
X95300Y102900D02*
X96900D01*
X98300D02*
X99900D01*
X149700D02*
X151700D01*
X95300Y102700D02*
X96700D01*
X98100D02*
X99700D01*
X149700D02*
X151500D01*
X95100Y102500D02*
X96500D01*
X98100D02*
X99700D01*
X149500D02*
X151300D01*
X94900Y102300D02*
X96500D01*
X97900D02*
X99500D01*
X149300D02*
X151100D01*
X94900Y102100D02*
X96300D01*
X97700D02*
X99300D01*
X149300D02*
X151100D01*
X94700Y101900D02*
X96300D01*
X97700D02*
X99300D01*
X149100D02*
X150900D01*
X94700Y101700D02*
X96100D01*
X97500D02*
X99100D01*
X148900D02*
X150700D01*
X151500D02*
X153300D01*
X94500Y101500D02*
X96100D01*
X97300D02*
X98900D01*
X148900D02*
X153500D01*
X94500Y101300D02*
X95900D01*
X97100D02*
X98700D01*
X148700D02*
X153500D01*
X94300Y101100D02*
X95700D01*
X97100D02*
X98700D01*
X148500D02*
X153500D01*
X94100Y100900D02*
X95700D01*
X96900D02*
X98500D01*
X148500D02*
X153500D01*
X41300Y100700D02*
X42300D01*
X94100D02*
X95500D01*
X96700D02*
X98300D01*
X132900D02*
X133900D01*
X148300D02*
X153300D01*
X41100Y100500D02*
X42500D01*
X93900D02*
X95500D01*
X96500D02*
X98100D01*
X132700D02*
X134100D01*
X147900D02*
X152100D01*
X40900Y100300D02*
X42500D01*
X93900D02*
X95300D01*
X96300D02*
X98100D01*
X132500D02*
X134100D01*
X146900D02*
X151300D01*
X40900Y100100D02*
X42500D01*
X93700D02*
X95300D01*
X96300D02*
X97900D01*
X132500D02*
X134100D01*
X146100D02*
X150500D01*
X40700Y99900D02*
X42500D01*
X66700D02*
X68900D01*
X93700D02*
X95100D01*
X96100D02*
X97700D01*
X132300D02*
X134100D01*
X145900D02*
X149900D01*
X40700Y99700D02*
X42300D01*
X66100D02*
X69300D01*
X73500D02*
X74900D01*
X87900D02*
X89500D01*
X93500D02*
X95100D01*
X95900D02*
X97500D01*
X116500D02*
X117900D01*
X132300D02*
X133900D01*
X145700D02*
X149500D01*
X40500Y99500D02*
X42300D01*
X65500D02*
X69700D01*
X73100D02*
X75300D01*
X87300D02*
X89700D01*
X93500D02*
X94900D01*
X95700D02*
X97300D01*
X116100D02*
X118300D01*
X132100D02*
X133900D01*
X145700D02*
X149500D01*
X40500Y99300D02*
X42100D01*
X49100D02*
X50500D01*
X59900D02*
X60700D01*
X65100D02*
X69700D01*
X72700D02*
X75500D01*
X86900D02*
X89900D01*
X93300D02*
X94900D01*
X95500D02*
X97100D01*
X108500D02*
X109900D01*
X115700D02*
X118500D01*
X132100D02*
X133700D01*
X145900D02*
X149300D01*
X155500D02*
X156900D01*
X166300D02*
X167100D01*
X40300Y99100D02*
X42100D01*
X48700D02*
X50900D01*
X59500D02*
X60900D01*
X64900D02*
X69900D01*
X72300D02*
X75500D01*
X86700D02*
X90100D01*
X93300D02*
X94700D01*
X95300D02*
X97100D01*
X107900D02*
X110100D01*
X115300D02*
X118500D01*
X131900D02*
X133700D01*
X146100D02*
X149100D01*
X155100D02*
X157300D01*
X165900D02*
X167300D01*
X40100Y98900D02*
X41900D01*
X42500D02*
X44100D01*
X48300D02*
X50900D01*
X56300D02*
X57100D01*
X59300D02*
X60900D01*
X64500D02*
X69900D01*
X72100D02*
X75500D01*
X86300D02*
X90100D01*
X93100D02*
X94700D01*
X95100D02*
X96900D01*
X107700D02*
X110300D01*
X115100D02*
X118500D01*
X121900D02*
X122900D01*
X131700D02*
X133500D01*
X134100D02*
X135700D01*
X147100D02*
X149100D01*
X154700D02*
X157300D01*
X162700D02*
X163500D01*
X165700D02*
X167300D01*
X40100Y98700D02*
X41900D01*
X42100D02*
X44300D01*
X47900D02*
X51100D01*
X55900D02*
X57300D01*
X58900D02*
X60900D01*
X64300D02*
X67100D01*
X67900D02*
X69900D01*
X71900D02*
X75500D01*
X82100D02*
X83100D01*
X86100D02*
X90100D01*
X93100D02*
X94500D01*
X94900D02*
X96700D01*
X107300D02*
X110300D01*
X114900D02*
X118500D01*
X121700D02*
X122900D01*
X131700D02*
X133500D01*
X133700D02*
X135900D01*
X146900D02*
X148900D01*
X154300D02*
X157500D01*
X162300D02*
X163700D01*
X165300D02*
X167300D01*
X39900Y98500D02*
X44500D01*
X47700D02*
X51100D01*
X55700D02*
X57300D01*
X58700D02*
X60900D01*
X64100D02*
X66500D01*
X68100D02*
X69900D01*
X71700D02*
X75700D01*
X78700D02*
X79500D01*
X81700D02*
X83300D01*
X85900D02*
X90100D01*
X92900D02*
X94500D01*
X94700D02*
X96500D01*
X107100D02*
X110500D01*
X114700D02*
X118700D01*
X121500D02*
X122900D01*
X127900D02*
X129100D01*
X131500D02*
X136100D01*
X139700D02*
X140700D01*
X146900D02*
X148900D01*
X154100D02*
X157500D01*
X162100D02*
X163700D01*
X165100D02*
X167300D01*
X39900Y98300D02*
X44700D01*
X47500D02*
X51100D01*
X55500D02*
X57300D01*
X58300D02*
X60700D01*
X63900D02*
X66100D01*
X68100D02*
X69700D01*
X71500D02*
X75700D01*
X78500D02*
X79700D01*
X81300D02*
X83300D01*
X85700D02*
X90100D01*
X92900D02*
X94300D01*
X94500D02*
X96300D01*
X106900D02*
X110500D01*
X114500D02*
X118700D01*
X121300D02*
X122900D01*
X124500D02*
X125500D01*
X127500D02*
X129300D01*
X131500D02*
X136300D01*
X139500D02*
X140900D01*
X146700D02*
X148700D01*
X153900D02*
X157500D01*
X161900D02*
X163700D01*
X164700D02*
X167100D01*
X39700Y98100D02*
X44700D01*
X47100D02*
X51100D01*
X55300D02*
X57300D01*
X58100D02*
X60500D01*
X63700D02*
X65900D01*
X68100D02*
X69700D01*
X71300D02*
X73500D01*
X73900D02*
X75700D01*
X78300D02*
X79700D01*
X81100D02*
X83300D01*
X85500D02*
X87900D01*
X88500D02*
X90100D01*
X92700D02*
X96100D01*
X106700D02*
X110500D01*
X114300D02*
X116500D01*
X116900D02*
X118700D01*
X121300D02*
X122700D01*
X124100D02*
X125700D01*
X127100D02*
X129300D01*
X131300D02*
X136300D01*
X139100D02*
X140900D01*
X142100D02*
X143100D01*
X146700D02*
X148500D01*
X153500D02*
X157500D01*
X161700D02*
X163700D01*
X164500D02*
X166900D01*
X39500Y97900D02*
X44700D01*
X46900D02*
X49100D01*
X49500D02*
X51100D01*
X55100D02*
X57100D01*
X57900D02*
X60300D01*
X63500D02*
X65500D01*
X68100D02*
X69700D01*
X71100D02*
X73300D01*
X74100D02*
X75500D01*
X78100D02*
X79900D01*
X80700D02*
X83300D01*
X85300D02*
X87500D01*
X88700D02*
X89900D01*
X92700D02*
X95900D01*
X106500D02*
X108700D01*
X108900D02*
X110500D01*
X114100D02*
X116300D01*
X117100D02*
X118500D01*
X121100D02*
X122700D01*
X123700D02*
X125700D01*
X126700D02*
X129300D01*
X131100D02*
X136300D01*
X138900D02*
X140900D01*
X141900D02*
X143300D01*
X146500D02*
X148500D01*
X153300D02*
X155500D01*
X155900D02*
X157500D01*
X161500D02*
X163500D01*
X164300D02*
X166700D01*
X39500Y97700D02*
X42300D01*
X42700D02*
X44700D01*
X46700D02*
X48700D01*
X49500D02*
X50900D01*
X55100D02*
X56900D01*
X57700D02*
X59900D01*
X63500D02*
X65300D01*
X67900D02*
X69500D01*
X70900D02*
X73100D01*
X74100D02*
X75500D01*
X77900D02*
X79700D01*
X80500D02*
X83100D01*
X85100D02*
X87100D01*
X88700D02*
X90100D01*
X92500D02*
X95700D01*
X106300D02*
X108300D01*
X109100D02*
X110300D01*
X113900D02*
X116100D01*
X117100D02*
X118500D01*
X120900D02*
X122500D01*
X123500D02*
X125700D01*
X126500D02*
X129100D01*
X131100D02*
X133900D01*
X134300D02*
X136300D01*
X138700D02*
X140700D01*
X141700D02*
X143300D01*
X146500D02*
X148300D01*
X153100D02*
X155100D01*
X155900D02*
X157300D01*
X161500D02*
X163300D01*
X164100D02*
X166300D01*
X39300Y97500D02*
X41900D01*
X42900D02*
X44700D01*
X46500D02*
X48500D01*
X49500D02*
X50900D01*
X54900D02*
X56700D01*
X57300D02*
X59700D01*
X63300D02*
X65100D01*
X67700D02*
X69500D01*
X70700D02*
X72700D01*
X74100D02*
X75500D01*
X77900D02*
X79700D01*
X80300D02*
X83100D01*
X84900D02*
X86900D01*
X88700D02*
X90100D01*
X92500D02*
X95500D01*
X106100D02*
X108100D01*
X108900D02*
X110300D01*
X113700D02*
X115700D01*
X117100D02*
X118500D01*
X120900D02*
X122500D01*
X123300D02*
X125500D01*
X126300D02*
X129100D01*
X130900D02*
X133500D01*
X134500D02*
X136300D01*
X138500D02*
X140500D01*
X141700D02*
X143300D01*
X146300D02*
X148300D01*
X152900D02*
X154900D01*
X155900D02*
X157300D01*
X161300D02*
X163100D01*
X163700D02*
X166100D01*
X39300Y97300D02*
X41700D01*
X42900D02*
X44700D01*
X46300D02*
X48300D01*
X49300D02*
X50700D01*
X54700D02*
X56700D01*
X57100D02*
X59500D01*
X63300D02*
X65100D01*
X67500D02*
X69300D01*
X70500D02*
X72500D01*
X73900D02*
X75500D01*
X77700D02*
X79500D01*
X80100D02*
X82900D01*
X84900D02*
X86700D01*
X88500D02*
X90100D01*
X92300D02*
X95300D01*
X105900D02*
X107900D01*
X108900D02*
X110300D01*
X113500D02*
X115500D01*
X116900D02*
X118500D01*
X120700D02*
X122300D01*
X122900D02*
X125500D01*
X125900D02*
X128900D01*
X130900D02*
X133300D01*
X134500D02*
X136300D01*
X138300D02*
X140500D01*
X141500D02*
X143300D01*
X146300D02*
X148100D01*
X152700D02*
X154700D01*
X155700D02*
X157100D01*
X161100D02*
X163100D01*
X163500D02*
X165900D01*
X39100Y97100D02*
X41300D01*
X42900D02*
X44700D01*
X46100D02*
X48100D01*
X49300D02*
X50700D01*
X54700D02*
X56500D01*
X56900D02*
X59300D01*
X61300D02*
X62100D01*
X63100D02*
X64900D01*
X66900D02*
X69100D01*
X70500D02*
X72300D01*
X73900D02*
X75500D01*
X77700D02*
X79500D01*
X79900D02*
X82700D01*
X84700D02*
X86500D01*
X88300D02*
X90100D01*
X92300D02*
X95100D01*
X105700D02*
X107700D01*
X108700D02*
X110100D01*
X113500D02*
X115300D01*
X116900D02*
X118500D01*
X120500D02*
X122100D01*
X122700D02*
X125300D01*
X125700D02*
X128700D01*
X130700D02*
X132900D01*
X134500D02*
X136300D01*
X138300D02*
X140300D01*
X141300D02*
X143300D01*
X146100D02*
X148100D01*
X152500D02*
X154500D01*
X155700D02*
X157100D01*
X161100D02*
X162900D01*
X163300D02*
X165700D01*
X167700D02*
X168500D01*
X39100Y96900D02*
X41100D01*
X42900D02*
X44700D01*
X46100D02*
X47900D01*
X49100D02*
X50500D01*
X54500D02*
X56300D01*
X56700D02*
X59300D01*
X60900D02*
X62300D01*
X63100D02*
X64900D01*
X66100D02*
X68900D01*
X70300D02*
X72100D01*
X73900D02*
X75300D01*
X77500D02*
X79300D01*
X79700D02*
X82700D01*
X84500D02*
X86500D01*
X88300D02*
X90100D01*
X92100D02*
X94900D01*
X105500D02*
X107500D01*
X108700D02*
X110100D01*
X113300D02*
X115100D01*
X116900D02*
X118300D01*
X120500D02*
X122100D01*
X122500D02*
X125100D01*
X125500D02*
X128500D01*
X130700D02*
X132700D01*
X134500D02*
X136300D01*
X138100D02*
X140100D01*
X141300D02*
X143300D01*
X146100D02*
X147900D01*
X152500D02*
X154300D01*
X155500D02*
X156900D01*
X160900D02*
X162700D01*
X163100D02*
X165700D01*
X167300D02*
X168700D01*
X38900Y96700D02*
X40900D01*
X42900D02*
X44700D01*
X45900D02*
X47700D01*
X48900D02*
X50500D01*
X54300D02*
X56100D01*
X56500D02*
X59100D01*
X60700D02*
X62300D01*
X63100D02*
X64900D01*
X65700D02*
X68700D01*
X70100D02*
X72100D01*
X73700D02*
X75300D01*
X77300D02*
X79100D01*
X79500D02*
X82500D01*
X84500D02*
X86300D01*
X88100D02*
X89900D01*
X92100D02*
X94700D01*
X105300D02*
X107300D01*
X108500D02*
X109900D01*
X113100D02*
X115100D01*
X116700D02*
X118300D01*
X120300D02*
X121900D01*
X122300D02*
X124900D01*
X125300D02*
X128300D01*
X130500D02*
X132500D01*
X134500D02*
X136300D01*
X137900D02*
X139900D01*
X141100D02*
X143100D01*
X145900D02*
X147900D01*
X152300D02*
X154100D01*
X155300D02*
X156900D01*
X160700D02*
X162500D01*
X162900D02*
X165500D01*
X167100D02*
X168700D01*
X38700Y96500D02*
X40700D01*
X42700D02*
X44500D01*
X45700D02*
X47500D01*
X48900D02*
X50300D01*
X54300D02*
X56100D01*
X56300D02*
X59100D01*
X60300D02*
X62100D01*
X63100D02*
X64700D01*
X65500D02*
X68500D01*
X70100D02*
X71900D01*
X73500D02*
X75300D01*
X77300D02*
X82300D01*
X84300D02*
X86100D01*
X88100D02*
X89900D01*
X92100D02*
X94500D01*
X105300D02*
X107100D01*
X108300D02*
X109900D01*
X113100D02*
X114900D01*
X116500D02*
X118300D01*
X120100D02*
X121900D01*
X122100D02*
X124900D01*
X125100D02*
X128100D01*
X130300D02*
X132300D01*
X134300D02*
X136100D01*
X137900D02*
X139700D01*
X141100D02*
X143100D01*
X145900D02*
X147700D01*
X152100D02*
X153900D01*
X155300D02*
X156700D01*
X160700D02*
X162500D01*
X162700D02*
X165500D01*
X166700D02*
X168500D01*
X38700Y96300D02*
X40700D01*
X42700D02*
X44500D01*
X45500D02*
X47300D01*
X48700D02*
X50100D01*
X54100D02*
X55900D01*
X56100D02*
X59100D01*
X59900D02*
X61900D01*
X63100D02*
X64700D01*
X65500D02*
X68100D01*
X69900D02*
X71700D01*
X73500D02*
X75100D01*
X77100D02*
X82100D01*
X84100D02*
X85900D01*
X87900D02*
X89700D01*
X91900D02*
X94300D01*
X105100D02*
X106900D01*
X108100D02*
X109700D01*
X112900D02*
X114700D01*
X116500D02*
X118100D01*
X120100D02*
X121700D01*
X121900D02*
X124700D01*
X124900D02*
X127900D01*
X130300D02*
X132300D01*
X134300D02*
X136100D01*
X137700D02*
X139700D01*
X141100D02*
X142900D01*
X145700D02*
X147700D01*
X151900D02*
X153700D01*
X155100D02*
X156500D01*
X160500D02*
X162300D01*
X162500D02*
X165500D01*
X166300D02*
X168300D01*
X38500Y96100D02*
X40500D01*
X42700D02*
X44500D01*
X45500D02*
X47300D01*
X48500D02*
X50100D01*
X54100D02*
X55700D01*
X55900D02*
X59100D01*
X59500D02*
X61700D01*
X63100D02*
X64900D01*
X65500D02*
X67700D01*
X69700D02*
X71500D01*
X73300D02*
X75100D01*
X77100D02*
X81900D01*
X84100D02*
X85900D01*
X87900D02*
X89700D01*
X91900D02*
X94100D01*
X104900D02*
X106900D01*
X107900D02*
X109500D01*
X112700D02*
X114500D01*
X116300D02*
X118100D01*
X119900D02*
X121500D01*
X121700D02*
X124500D01*
X124700D02*
X127900D01*
X130100D02*
X132100D01*
X134300D02*
X136100D01*
X137500D02*
X139500D01*
X140900D02*
X142900D01*
X145700D02*
X147500D01*
X151900D02*
X153700D01*
X154900D02*
X156500D01*
X160500D02*
X162100D01*
X162300D02*
X165500D01*
X165900D02*
X168100D01*
X38500Y95900D02*
X40300D01*
X42500D02*
X44300D01*
X45300D02*
X47100D01*
X48300D02*
X49900D01*
X53900D02*
X61500D01*
X63100D02*
X64900D01*
X65700D02*
X67100D01*
X69700D02*
X71300D01*
X73100D02*
X75100D01*
X76900D02*
X81900D01*
X83900D02*
X85700D01*
X87700D02*
X89500D01*
X91700D02*
X93700D01*
X104900D02*
X106700D01*
X107900D02*
X109500D01*
X112700D02*
X114300D01*
X116100D02*
X118100D01*
X119900D02*
X127700D01*
X130100D02*
X131900D01*
X134100D02*
X135900D01*
X137500D02*
X139300D01*
X140900D02*
X142700D01*
X145700D02*
X147500D01*
X151700D02*
X153500D01*
X154700D02*
X156300D01*
X160300D02*
X167900D01*
X38300Y95700D02*
X40100D01*
X42500D02*
X44300D01*
X45100D02*
X46900D01*
X48100D02*
X49700D01*
X53900D02*
X57100D01*
X57300D02*
X61300D01*
X63300D02*
X64900D01*
X69500D02*
X71300D01*
X72900D02*
X74900D01*
X76900D02*
X81700D01*
X83900D02*
X85700D01*
X87700D02*
X89500D01*
X91700D02*
X93500D01*
X104700D02*
X106500D01*
X107900D02*
X109100D01*
X112500D02*
X114300D01*
X115900D02*
X117900D01*
X119700D02*
X127500D01*
X129900D02*
X131700D01*
X134100D02*
X135900D01*
X137300D02*
X139100D01*
X140700D02*
X142700D01*
X145500D02*
X147500D01*
X151500D02*
X153300D01*
X154500D02*
X156100D01*
X160300D02*
X163500D01*
X163700D02*
X167700D01*
X38300Y95500D02*
X40100D01*
X42300D02*
X44100D01*
X45100D02*
X46900D01*
X47900D02*
X49500D01*
X53700D02*
X56900D01*
X57300D02*
X61100D01*
X63300D02*
X65100D01*
X69500D02*
X71100D01*
X72700D02*
X74900D01*
X76700D02*
X81500D01*
X83700D02*
X85500D01*
X87500D02*
X89300D01*
X91500D02*
X93300D01*
X104500D02*
X106300D01*
X107900D02*
X108900D01*
X112500D02*
X114100D01*
X115700D02*
X117900D01*
X119700D02*
X127300D01*
X129900D02*
X131700D01*
X133900D02*
X135700D01*
X137300D02*
X139100D01*
X140700D02*
X142500D01*
X145500D02*
X147300D01*
X151500D02*
X153300D01*
X154300D02*
X155900D01*
X160100D02*
X163300D01*
X163700D02*
X167500D01*
X38100Y95300D02*
X39900D01*
X42300D02*
X44100D01*
X44900D02*
X46700D01*
X47500D02*
X49300D01*
X51700D02*
X52300D01*
X53700D02*
X56700D01*
X57300D02*
X60700D01*
X63500D02*
X65100D01*
X69300D02*
X71100D01*
X72500D02*
X74700D01*
X76700D02*
X81500D01*
X83700D02*
X85300D01*
X87500D02*
X89300D01*
X91500D02*
X93100D01*
X95100D02*
X95900D01*
X104500D02*
X106300D01*
X112300D02*
X114100D01*
X115500D02*
X117700D01*
X119500D02*
X125300D01*
X125500D02*
X127100D01*
X129700D02*
X131500D01*
X133900D02*
X135700D01*
X137100D02*
X138900D01*
X140500D02*
X142500D01*
X145500D02*
X147300D01*
X149900D02*
X150900D01*
X151300D02*
X153100D01*
X153900D02*
X155700D01*
X158100D02*
X158700D01*
X160100D02*
X163100D01*
X163700D02*
X167100D01*
X38100Y95100D02*
X39700D01*
X42100D02*
X44100D01*
X44900D02*
X46700D01*
X47300D02*
X49100D01*
X51300D02*
X52500D01*
X53500D02*
X56500D01*
X57300D02*
X60300D01*
X61900D02*
X62900D01*
X63500D02*
X65300D01*
X69300D02*
X70900D01*
X72500D02*
X74700D01*
X76500D02*
X79500D01*
X79700D02*
X81300D01*
X83500D02*
X85300D01*
X87300D02*
X89100D01*
X91500D02*
X93100D01*
X94900D02*
X96100D01*
X104300D02*
X106100D01*
X110100D02*
X110900D01*
X112300D02*
X113900D01*
X115500D02*
X117700D01*
X119500D02*
X125100D01*
X125300D02*
X127100D01*
X129700D02*
X131300D01*
X133700D02*
X135700D01*
X137100D02*
X138900D01*
X140500D02*
X142300D01*
X145300D02*
X147100D01*
X149900D02*
X151100D01*
X151300D02*
X153100D01*
X153700D02*
X155500D01*
X157700D02*
X158900D01*
X159900D02*
X162900D01*
X163700D02*
X166700D01*
X37900Y94900D02*
X39700D01*
X42100D02*
X43900D01*
X44700D02*
X46500D01*
X46900D02*
X48700D01*
X51100D02*
X52500D01*
X53500D02*
X56300D01*
X57500D02*
X59900D01*
X61500D02*
X62900D01*
X63700D02*
X65300D01*
X69100D02*
X70900D01*
X72300D02*
X74500D01*
X76500D02*
X79300D01*
X79500D02*
X81300D01*
X83500D02*
X85100D01*
X87100D02*
X89100D01*
X91300D02*
X92900D01*
X94700D02*
X96100D01*
X104300D02*
X106100D01*
X109900D02*
X110900D01*
X112100D02*
X113900D01*
X115300D02*
X117500D01*
X119300D02*
X122100D01*
X122300D02*
X124900D01*
X125100D02*
X126900D01*
X129500D02*
X131300D01*
X133700D02*
X135500D01*
X136900D02*
X138700D01*
X140300D02*
X142300D01*
X145300D02*
X147100D01*
X149700D02*
X150900D01*
X151100D02*
X152900D01*
X153300D02*
X155100D01*
X157500D02*
X158900D01*
X159900D02*
X162700D01*
X163900D02*
X166300D01*
X37900Y94700D02*
X39500D01*
X41900D02*
X43900D01*
X44700D02*
X48500D01*
X51100D02*
X52500D01*
X53300D02*
X56100D01*
X57900D02*
X59500D01*
X61500D02*
X62700D01*
X63700D02*
X65500D01*
X69100D02*
X70700D01*
X72500D02*
X74500D01*
X76300D02*
X79100D01*
X79300D02*
X81100D01*
X83500D02*
X85100D01*
X87100D02*
X89100D01*
X91300D02*
X92900D01*
X94700D02*
X95900D01*
X104100D02*
X105900D01*
X109700D02*
X111100D01*
X112100D02*
X113700D01*
X115500D02*
X117500D01*
X119300D02*
X121900D01*
X122100D02*
X124700D01*
X125100D02*
X126700D01*
X129500D02*
X131100D01*
X133500D02*
X135500D01*
X136900D02*
X138700D01*
X140300D02*
X142100D01*
X145300D02*
X147100D01*
X149500D02*
X150900D01*
X151100D02*
X154900D01*
X157500D02*
X158900D01*
X159700D02*
X162500D01*
X164300D02*
X165900D01*
X37700Y94500D02*
X39500D01*
X41700D02*
X43700D01*
X44700D02*
X48300D01*
X50900D02*
X52300D01*
X53300D02*
X55900D01*
X61300D02*
X62700D01*
X63900D02*
X65500D01*
X68900D02*
X70700D01*
X72700D02*
X74300D01*
X76300D02*
X78900D01*
X79300D02*
X80900D01*
X83300D02*
X85100D01*
X86900D02*
X88900D01*
X91100D02*
X92900D01*
X94500D02*
X95900D01*
X104100D02*
X105900D01*
X109500D02*
X110900D01*
X111900D02*
X113700D01*
X115700D02*
X117300D01*
X119100D02*
X121700D01*
X122100D02*
X124500D01*
X124900D02*
X126700D01*
X129300D02*
X131100D01*
X133300D02*
X135300D01*
X136700D02*
X138500D01*
X140100D02*
X142100D01*
X145100D02*
X146900D01*
X149500D02*
X150900D01*
X151100D02*
X154700D01*
X157300D02*
X158700D01*
X159700D02*
X162300D01*
X37700Y94300D02*
X39300D01*
X41700D02*
X43500D01*
X44500D02*
X47900D01*
X50700D02*
X52300D01*
X53100D02*
X55700D01*
X61100D02*
X62500D01*
X63900D02*
X65700D01*
X68900D02*
X70500D01*
X72700D02*
X74300D01*
X76100D02*
X78700D01*
X79100D02*
X80900D01*
X83300D02*
X84900D01*
X86900D02*
X88900D01*
X91100D02*
X92700D01*
X94300D02*
X95700D01*
X103900D02*
X105700D01*
X109300D02*
X110900D01*
X111900D02*
X113500D01*
X115700D02*
X117300D01*
X119100D02*
X121500D01*
X121900D02*
X124500D01*
X124900D02*
X126500D01*
X129300D02*
X130900D01*
X133300D02*
X135100D01*
X136700D02*
X138500D01*
X140100D02*
X141900D01*
X145100D02*
X146900D01*
X149300D02*
X150700D01*
X150900D02*
X154300D01*
X157100D02*
X158700D01*
X159500D02*
X162100D01*
X37500Y94100D02*
X39300D01*
X41500D02*
X43500D01*
X44500D02*
X47500D01*
X50500D02*
X52100D01*
X53100D02*
X55500D01*
X61100D02*
X62500D01*
X64100D02*
X65900D01*
X68900D02*
X70500D01*
X72500D02*
X74100D01*
X76100D02*
X78500D01*
X79100D02*
X80700D01*
X83300D02*
X84900D01*
X86700D02*
X88700D01*
X91100D02*
X92700D01*
X94300D02*
X95700D01*
X103900D02*
X105700D01*
X109300D02*
X110700D01*
X111900D02*
X113500D01*
X115500D02*
X117100D01*
X118900D02*
X121300D01*
X121900D02*
X124300D01*
X124700D02*
X126500D01*
X129100D02*
X130900D01*
X133100D02*
X135100D01*
X136500D02*
X138300D01*
X139900D02*
X141900D01*
X145100D02*
X146900D01*
X149100D02*
X150700D01*
X150900D02*
X153900D01*
X156900D02*
X158500D01*
X159500D02*
X161900D01*
X37500Y93900D02*
X39100D01*
X41300D02*
X43300D01*
X44500D02*
X46900D01*
X50300D02*
X51900D01*
X53100D02*
X55500D01*
X61100D02*
X62500D01*
X64300D02*
X65900D01*
X68700D02*
X70500D01*
X72500D02*
X74100D01*
X75900D02*
X78300D01*
X79100D02*
X80700D01*
X83100D02*
X84700D01*
X86700D02*
X88700D01*
X90900D02*
X92700D01*
X94100D02*
X95500D01*
X103900D02*
X105500D01*
X109100D02*
X110700D01*
X111700D02*
X113500D01*
X115500D02*
X117100D01*
X118900D02*
X121100D01*
X121700D02*
X124100D01*
X124700D02*
X126300D01*
X129100D02*
X130700D01*
X132900D02*
X134900D01*
X136500D02*
X138300D01*
X139700D02*
X141900D01*
X145100D02*
X146700D01*
X149100D02*
X150500D01*
X150900D02*
X153300D01*
X156700D02*
X158300D01*
X159500D02*
X161900D01*
X37300Y93700D02*
X39100D01*
X41300D02*
X43300D01*
X44500D02*
X46500D01*
X50100D02*
X51700D01*
X52900D02*
X55300D01*
X60900D02*
X62500D01*
X64300D02*
X66100D01*
X68700D02*
X70300D01*
X72300D02*
X73900D01*
X75900D02*
X78100D01*
X78900D02*
X80500D01*
X83100D02*
X84700D01*
X86500D02*
X88700D01*
X90900D02*
X92500D01*
X94100D02*
X95500D01*
X103700D02*
X105500D01*
X108900D02*
X110500D01*
X111700D02*
X113300D01*
X115300D02*
X116900D01*
X118900D02*
X121100D01*
X121700D02*
X123900D01*
X124700D02*
X126300D01*
X128900D02*
X130700D01*
X132900D02*
X134900D01*
X136500D02*
X138100D01*
X139700D02*
X141900D01*
X144900D02*
X146700D01*
X148900D02*
X150300D01*
X150900D02*
X152900D01*
X156500D02*
X158100D01*
X159300D02*
X161700D01*
X37300Y93500D02*
X38900D01*
X41100D02*
X43100D01*
X44300D02*
X46100D01*
X49900D02*
X51500D01*
X52900D02*
X55100D01*
X60900D02*
X62500D01*
X64500D02*
X66100D01*
X68700D02*
X70300D01*
X72100D02*
X73700D01*
X75700D02*
X78100D01*
X78900D02*
X80500D01*
X83100D02*
X84700D01*
X86300D02*
X88700D01*
X90900D02*
X92500D01*
X93900D02*
X95300D01*
X103700D02*
X105500D01*
X108700D02*
X110300D01*
X111700D02*
X113300D01*
X115100D02*
X116700D01*
X118700D02*
X120900D01*
X121700D02*
X123700D01*
X124700D02*
X126100D01*
X128900D02*
X130500D01*
X132700D02*
X134700D01*
X136300D02*
X138100D01*
X139500D02*
X141700D01*
X144900D02*
X146700D01*
X148700D02*
X150300D01*
X150700D02*
X152500D01*
X156300D02*
X157900D01*
X159300D02*
X161500D01*
X37100Y93300D02*
X38900D01*
X40900D02*
X42900D01*
X44300D02*
X46100D01*
X49700D02*
X51300D01*
X52700D02*
X54900D01*
X60900D02*
X62500D01*
X64500D02*
X66300D01*
X68700D02*
X70300D01*
X72100D02*
X73700D01*
X75700D02*
X77900D01*
X78700D02*
X80500D01*
X83100D02*
X84700D01*
X86300D02*
X88500D01*
X90900D02*
X92500D01*
X93700D02*
X95100D01*
X103700D02*
X105300D01*
X108500D02*
X110100D01*
X111700D02*
X113300D01*
X115100D02*
X116700D01*
X118700D02*
X120700D01*
X121500D02*
X123700D01*
X124500D02*
X126100D01*
X128700D02*
X130500D01*
X132500D02*
X134500D01*
X136300D02*
X138100D01*
X139300D02*
X141700D01*
X144900D02*
X146700D01*
X148500D02*
X150100D01*
X150700D02*
X152500D01*
X156100D02*
X157700D01*
X159100D02*
X161300D01*
X37100Y93100D02*
X38700D01*
X40700D02*
X42900D01*
X44300D02*
X46100D01*
X49300D02*
X51100D01*
X52700D02*
X54900D01*
X60900D02*
X62500D01*
X64700D02*
X66300D01*
X68700D02*
X70300D01*
X71900D02*
X73500D01*
X75500D02*
X77700D01*
X78700D02*
X80300D01*
X82900D02*
X84700D01*
X86100D02*
X88500D01*
X90700D02*
X92300D01*
X93500D02*
X95100D01*
X103500D02*
X105300D01*
X108300D02*
X109900D01*
X111700D02*
X113300D01*
X114900D02*
X116500D01*
X118500D02*
X120700D01*
X121500D02*
X123500D01*
X124500D02*
X126100D01*
X128700D02*
X130300D01*
X132300D02*
X134500D01*
X136300D02*
X137900D01*
X139100D02*
X141700D01*
X144900D02*
X146700D01*
X148500D02*
X149900D01*
X150700D02*
X152500D01*
X155700D02*
X157500D01*
X159100D02*
X161300D01*
X36900Y92900D02*
X38700D01*
X40500D02*
X42700D01*
X44300D02*
X46300D01*
X49100D02*
X50900D01*
X52700D02*
X54700D01*
X60900D02*
X62500D01*
X64700D02*
X66300D01*
X68500D02*
X70300D01*
X71700D02*
X73300D01*
X75500D02*
X77700D01*
X78700D02*
X80300D01*
X82900D02*
X84700D01*
X85900D02*
X88500D01*
X90700D02*
X92300D01*
X93300D02*
X94900D01*
X103500D02*
X105300D01*
X107900D02*
X109900D01*
X111500D02*
X113300D01*
X114700D02*
X116300D01*
X118500D02*
X120500D01*
X121300D02*
X123300D01*
X124500D02*
X126100D01*
X128500D02*
X130300D01*
X132100D02*
X134300D01*
X136300D02*
X137900D01*
X139100D02*
X141700D01*
X144900D02*
X146500D01*
X148300D02*
X149700D01*
X150700D02*
X152700D01*
X155500D02*
X157300D01*
X159100D02*
X161100D01*
X36900Y92700D02*
X38500D01*
X40300D02*
X42500D01*
X44300D02*
X46300D01*
X48700D02*
X50700D01*
X52500D02*
X54500D01*
X60900D02*
X62500D01*
X64700D02*
X66300D01*
X68500D02*
X70300D01*
X71500D02*
X73300D01*
X75300D02*
X77500D01*
X78700D02*
X80300D01*
X82900D02*
X84700D01*
X85700D02*
X88500D01*
X90700D02*
X92300D01*
X93300D02*
X94700D01*
X103500D02*
X105300D01*
X107700D02*
X109700D01*
X111500D02*
X113300D01*
X114500D02*
X116300D01*
X118300D02*
X120300D01*
X121300D02*
X123300D01*
X124500D02*
X126100D01*
X128500D02*
X130100D01*
X131900D02*
X134100D01*
X136300D02*
X137900D01*
X138900D02*
X141900D01*
X144900D02*
X146500D01*
X148100D02*
X149700D01*
X150700D02*
X152700D01*
X155100D02*
X157100D01*
X158900D02*
X160900D01*
X36700Y92500D02*
X38500D01*
X40100D02*
X42300D01*
X44300D02*
X46500D01*
X48300D02*
X50500D01*
X52500D02*
X54500D01*
X60900D02*
X62500D01*
X64700D02*
X66300D01*
X68500D02*
X70300D01*
X71300D02*
X73100D01*
X75300D02*
X77300D01*
X78500D02*
X80300D01*
X82900D02*
X84700D01*
X85500D02*
X88500D01*
X90700D02*
X92300D01*
X92900D02*
X94700D01*
X103500D02*
X105300D01*
X107500D02*
X109500D01*
X111500D02*
X113300D01*
X114300D02*
X116100D01*
X118300D02*
X120300D01*
X121300D02*
X123100D01*
X124500D02*
X126100D01*
X128300D02*
X130100D01*
X131700D02*
X133900D01*
X136300D02*
X137900D01*
X138700D02*
X141900D01*
X144900D02*
X146700D01*
X147900D02*
X149500D01*
X150700D02*
X152900D01*
X154700D02*
X156900D01*
X158900D02*
X160900D01*
X36700Y92300D02*
X38300D01*
X39700D02*
X42100D01*
X44500D02*
X46900D01*
X47900D02*
X50300D01*
X52300D02*
X54300D01*
X60900D02*
X62700D01*
X64700D02*
X66300D01*
X68500D02*
X70500D01*
X70900D02*
X72900D01*
X75100D02*
X77300D01*
X78500D02*
X80100D01*
X82900D02*
X84900D01*
X85300D02*
X86900D01*
X87100D02*
X88500D01*
X90500D02*
X92300D01*
X92700D02*
X94500D01*
X103500D02*
X105300D01*
X107300D02*
X109300D01*
X111500D02*
X113500D01*
X113900D02*
X115900D01*
X118300D02*
X120100D01*
X121100D02*
X122900D01*
X124500D02*
X126100D01*
X128300D02*
X129900D01*
X131300D02*
X133700D01*
X136300D02*
X138100D01*
X138300D02*
X140100D01*
X140300D02*
X141900D01*
X144900D02*
X146700D01*
X147700D02*
X149300D01*
X150900D02*
X153300D01*
X154300D02*
X156700D01*
X158700D02*
X160700D01*
X36500Y92100D02*
X38700D01*
X39300D02*
X41900D01*
X44500D02*
X49900D01*
X52300D02*
X54300D01*
X60900D02*
X62900D01*
X64500D02*
X66300D01*
X68500D02*
X72700D01*
X75100D02*
X77100D01*
X78500D02*
X80100D01*
X82900D02*
X86700D01*
X87100D02*
X88500D01*
X90500D02*
X94300D01*
X103500D02*
X105500D01*
X106900D02*
X109100D01*
X111500D02*
X115700D01*
X118100D02*
X120100D01*
X121100D02*
X122900D01*
X124500D02*
X126100D01*
X128100D02*
X130300D01*
X130900D02*
X133500D01*
X136300D02*
X139900D01*
X140300D02*
X142100D01*
X144900D02*
X146900D01*
X147300D02*
X149100D01*
X150900D02*
X156300D01*
X158700D02*
X160700D01*
X36500Y91900D02*
X41700D01*
X44500D02*
X49700D01*
X52300D02*
X54100D01*
X61100D02*
X63100D01*
X64500D02*
X66300D01*
X68500D02*
X72500D01*
X75100D02*
X76900D01*
X78500D02*
X80100D01*
X82900D02*
X86700D01*
X87100D02*
X88700D01*
X90500D02*
X94100D01*
X103500D02*
X105700D01*
X106500D02*
X108900D01*
X111500D02*
X115500D01*
X118100D02*
X119900D01*
X120900D02*
X122700D01*
X124500D02*
X126100D01*
X128100D02*
X133300D01*
X136300D02*
X139900D01*
X140300D02*
X142100D01*
X144900D02*
X148900D01*
X150900D02*
X156100D01*
X158700D02*
X160500D01*
X36300Y91700D02*
X41500D01*
X44700D02*
X49300D01*
X52100D02*
X54100D01*
X61100D02*
X63300D01*
X64100D02*
X66300D01*
X68700D02*
X72300D01*
X74900D02*
X76900D01*
X78500D02*
X80100D01*
X83100D02*
X86500D01*
X87100D02*
X88700D01*
X90500D02*
X93900D01*
X103700D02*
X108700D01*
X111700D02*
X115300D01*
X118100D02*
X119900D01*
X120900D02*
X122700D01*
X124500D02*
X126300D01*
X127900D02*
X133100D01*
X136300D02*
X139700D01*
X140500D02*
X142300D01*
X144900D02*
X148700D01*
X151100D02*
X155700D01*
X158500D02*
X160500D01*
X36300Y91500D02*
X41300D01*
X44700D02*
X49100D01*
X52100D02*
X53900D01*
X61300D02*
X66100D01*
X68700D02*
X72100D01*
X74900D02*
X76700D01*
X78500D02*
X80100D01*
X83100D02*
X86300D01*
X87100D02*
X88900D01*
X90500D02*
X93700D01*
X103700D02*
X108300D01*
X111700D02*
X115100D01*
X117900D02*
X119700D01*
X120900D02*
X122500D01*
X124700D02*
X126300D01*
X127900D02*
X132900D01*
X136300D02*
X139500D01*
X140500D02*
X142500D01*
X145100D02*
X148500D01*
X151100D02*
X155500D01*
X158500D02*
X160300D01*
X36100Y91300D02*
X41100D01*
X44900D02*
X48700D01*
X52100D02*
X53900D01*
X61300D02*
X65900D01*
X68700D02*
X71900D01*
X74900D02*
X76700D01*
X78500D02*
X80100D01*
X83300D02*
X86100D01*
X87100D02*
X89300D01*
X90700D02*
X93500D01*
X103900D02*
X108100D01*
X111700D02*
X114900D01*
X117900D02*
X119700D01*
X120900D02*
X122500D01*
X124700D02*
X126500D01*
X127700D02*
X132700D01*
X136500D02*
X139300D01*
X140500D02*
X142900D01*
X145100D02*
X148300D01*
X151300D02*
X155100D01*
X158500D02*
X160300D01*
X36100Y91100D02*
X40700D01*
X45300D02*
X48100D01*
X51900D02*
X53700D01*
X61500D02*
X65900D01*
X68900D02*
X71700D01*
X74900D02*
X76500D01*
X78500D02*
X80100D01*
X83300D02*
X85900D01*
X87300D02*
X89500D01*
X90700D02*
X93300D01*
X103900D02*
X107900D01*
X111900D02*
X114700D01*
X117900D02*
X119500D01*
X120900D02*
X122300D01*
X124700D02*
X126700D01*
X127700D02*
X132300D01*
X136500D02*
X139100D01*
X140700D02*
X143100D01*
X145300D02*
X148100D01*
X151700D02*
X154500D01*
X158300D02*
X160100D01*
X35900Y90900D02*
X40300D01*
X45700D02*
X47500D01*
X51900D02*
X53700D01*
X61700D02*
X65700D01*
X69100D02*
X71300D01*
X74900D02*
X76300D01*
X78500D02*
X80100D01*
X83500D02*
X85700D01*
X87300D02*
X89700D01*
X90900D02*
X92900D01*
X104100D02*
X107500D01*
X112100D02*
X114300D01*
X117900D02*
X119500D01*
X120900D02*
X122100D01*
X124900D02*
X126700D01*
X127500D02*
X131900D01*
X136700D02*
X138900D01*
X140700D02*
X143300D01*
X145500D02*
X147700D01*
X152100D02*
X153900D01*
X158300D02*
X160100D01*
X35900Y90700D02*
X37700D01*
X38300D02*
X39900D01*
X51900D02*
X53500D01*
X61900D02*
X65300D01*
X69500D02*
X70900D01*
X75100D02*
X76100D01*
X78500D02*
X80300D01*
X83900D02*
X85300D01*
X87500D02*
X89700D01*
X91300D02*
X92500D01*
X104300D02*
X107100D01*
X112500D02*
X113900D01*
X117900D02*
X119500D01*
X121100D02*
X121900D01*
X125100D02*
X126700D01*
X127500D02*
X129300D01*
X129900D02*
X131500D01*
X137100D02*
X138500D01*
X140900D02*
X143300D01*
X145900D02*
X147300D01*
X158300D02*
X159900D01*
X35700Y90500D02*
X37700D01*
X51900D02*
X53300D01*
X62100D02*
X65100D01*
X78500D02*
X80300D01*
X87700D02*
X89700D01*
X104900D02*
X106500D01*
X117900D02*
X119300D01*
X125100D02*
X126700D01*
X127300D02*
X129300D01*
X141100D02*
X143300D01*
X158300D02*
X159700D01*
X35700Y90300D02*
X37500D01*
X51900D02*
X53300D01*
X62700D02*
X64500D01*
X78700D02*
X80300D01*
X87900D02*
X89700D01*
X117900D02*
X119300D01*
X125500D02*
X126500D01*
X127300D02*
X129100D01*
X141300D02*
X143100D01*
X158300D02*
X159700D01*
X35500Y90100D02*
X37500D01*
X52100D02*
X53100D01*
X78700D02*
X80500D01*
X88300D02*
X89500D01*
X118100D02*
X118900D01*
X127100D02*
X129100D01*
X141700D02*
X142900D01*
X158500D02*
X159500D01*
X35500Y89900D02*
X37300D01*
X78700D02*
X80500D01*
X127100D02*
X128900D01*
X35300Y89700D02*
X37300D01*
X78900D02*
X80700D01*
X126900D02*
X128900D01*
X35300Y89500D02*
X37100D01*
X78900D02*
X80700D01*
X126900D02*
X128700D01*
X35300Y89300D02*
X37100D01*
X79100D02*
X80700D01*
X126900D02*
X128700D01*
X35100Y89100D02*
X36900D01*
X79300D02*
X80500D01*
X126700D02*
X128500D01*
X35100Y88900D02*
X36900D01*
X126700D02*
X128500D01*
X34900Y88700D02*
X36700D01*
X126500D02*
X128300D01*
X34900Y88500D02*
X36700D01*
X126500D02*
X128300D01*
X34700Y88300D02*
X36500D01*
X126300D02*
X128100D01*
X34700Y88100D02*
X36500D01*
X126300D02*
X128100D01*
X34500Y87900D02*
X36300D01*
X126100D02*
X127900D01*
X34500Y87700D02*
X36300D01*
X126100D02*
X127900D01*
X34500Y87500D02*
X36100D01*
X126100D02*
X127700D01*
X34300Y87300D02*
X36100D01*
X125900D02*
X127700D01*
X34300Y87100D02*
X36100D01*
X125900D02*
X127700D01*
X34100Y86900D02*
X35900D01*
X125700D02*
X127500D01*
X34100Y86700D02*
X35900D01*
X125700D02*
X127500D01*
X33900Y86500D02*
X35700D01*
X125500D02*
X127300D01*
X33900Y86300D02*
X35700D01*
X125500D02*
X127300D01*
X33900Y86100D02*
X35500D01*
X125500D02*
X127100D01*
X33700Y85900D02*
X35500D01*
X125300D02*
X127100D01*
X33700Y85700D02*
X35300D01*
X125300D02*
X126900D01*
X33500Y85500D02*
X35300D01*
X125100D02*
X126900D01*
X33500Y85300D02*
X35300D01*
X125100D02*
X126900D01*
X33300Y85100D02*
X35100D01*
X124900D02*
X126700D01*
X33300Y84900D02*
X35100D01*
X124900D02*
X126700D01*
X33300Y84700D02*
X34900D01*
X124900D02*
X126500D01*
X33100Y84500D02*
X34900D01*
X124700D02*
X126500D01*
X33100Y84300D02*
X34900D01*
X124700D02*
X126500D01*
X33100Y84100D02*
X34700D01*
X124700D02*
X126300D01*
X32900Y83900D02*
X34700D01*
X124500D02*
X126300D01*
X32900Y83700D02*
X34500D01*
X124500D02*
X126100D01*
X32900Y83500D02*
X34500D01*
X124500D02*
X126100D01*
X32700Y83300D02*
X34500D01*
X124300D02*
X126100D01*
X32700Y83100D02*
X34300D01*
X124300D02*
X125900D01*
X32700Y82900D02*
X34300D01*
X124300D02*
X125900D01*
X32700Y82700D02*
X34100D01*
X124300D02*
X125700D01*
X32900Y82500D02*
X34100D01*
X124500D02*
X125700D01*
X33100Y82300D02*
X33900D01*
X124700D02*
X125500D01*
X173600Y121100D02*
X218000D01*
X173600Y120900D02*
X218000D01*
X173600Y120700D02*
X218000D01*
X173600Y120500D02*
X218000D01*
X173600Y120300D02*
X218000D01*
X173600Y120100D02*
X174600D01*
X217000D02*
X218000D01*
X173600Y119900D02*
X174600D01*
X217000D02*
X218000D01*
X173600Y119700D02*
X174600D01*
X217000D02*
X218000D01*
X173600Y119500D02*
X174600D01*
X217000D02*
X218000D01*
X173600Y119300D02*
X174600D01*
X217000D02*
X218000D01*
X173600Y119100D02*
X174600D01*
X217000D02*
X218000D01*
X173600Y118900D02*
X174600D01*
X217000D02*
X218000D01*
X173600Y118700D02*
X174600D01*
X217000D02*
X218000D01*
X173600Y118500D02*
X174600D01*
X217000D02*
X218000D01*
X173600Y118300D02*
X174600D01*
X217000D02*
X218000D01*
X173600Y118100D02*
X174600D01*
X217000D02*
X218000D01*
X173600Y117900D02*
X174600D01*
X217000D02*
X218000D01*
X173600Y117700D02*
X174600D01*
X217000D02*
X218000D01*
X173600Y117500D02*
X174600D01*
X217000D02*
X218000D01*
X173600Y117300D02*
X174600D01*
X217000D02*
X218000D01*
X173600Y117100D02*
X174600D01*
X217000D02*
X218000D01*
X173600Y116900D02*
X174600D01*
X217000D02*
X218000D01*
X173600Y116700D02*
X174600D01*
X217000D02*
X218000D01*
X173600Y116500D02*
X174600D01*
X217000D02*
X218000D01*
X173600Y116300D02*
X174600D01*
X217000D02*
X218000D01*
X173600Y116100D02*
X174600D01*
X209000D02*
X214000D01*
X217000D02*
X218000D01*
X173600Y115900D02*
X174600D01*
X193400D02*
X195200D01*
X206800D02*
X214400D01*
X217000D02*
X218000D01*
X173600Y115700D02*
X174600D01*
X193200D02*
X195400D01*
X205400D02*
X214600D01*
X217000D02*
X218000D01*
X173600Y115500D02*
X174600D01*
X192800D02*
X195600D01*
X204200D02*
X214600D01*
X217000D02*
X218000D01*
X173600Y115300D02*
X174600D01*
X192600D02*
X195600D01*
X203200D02*
X214600D01*
X217000D02*
X218000D01*
X173600Y115100D02*
X174600D01*
X192400D02*
X195600D01*
X202200D02*
X214600D01*
X217000D02*
X218000D01*
X173600Y114900D02*
X174600D01*
X192200D02*
X195600D01*
X201400D02*
X214600D01*
X217000D02*
X218000D01*
X173600Y114700D02*
X174600D01*
X192000D02*
X195600D01*
X200600D02*
X214400D01*
X217000D02*
X218000D01*
X173600Y114500D02*
X174600D01*
X191800D02*
X195600D01*
X199800D02*
X214200D01*
X217000D02*
X218000D01*
X173600Y114300D02*
X174600D01*
X191600D02*
X195600D01*
X199000D02*
X213400D01*
X217000D02*
X218000D01*
X173600Y114100D02*
X174600D01*
X191400D02*
X195600D01*
X198400D02*
X209000D01*
X217000D02*
X218000D01*
X173600Y113900D02*
X174600D01*
X191200D02*
X195400D01*
X198200D02*
X207200D01*
X217000D02*
X218000D01*
X173600Y113700D02*
X174600D01*
X191000D02*
X195400D01*
X198000D02*
X206800D01*
X217000D02*
X218000D01*
X173600Y113500D02*
X174600D01*
X190800D02*
X195400D01*
X197800D02*
X206800D01*
X217000D02*
X218000D01*
X173600Y113300D02*
X174600D01*
X190600D02*
X195200D01*
X197800D02*
X206800D01*
X217000D02*
X218000D01*
X173600Y113100D02*
X174600D01*
X190400D02*
X195200D01*
X197800D02*
X203200D01*
X204000D02*
X206800D01*
X217000D02*
X218000D01*
X173600Y112900D02*
X174600D01*
X190200D02*
X195200D01*
X197800D02*
X202200D01*
X203800D02*
X206800D01*
X217000D02*
X218000D01*
X173600Y112700D02*
X174600D01*
X190000D02*
X195000D01*
X197800D02*
X201400D01*
X203800D02*
X206600D01*
X217000D02*
X218000D01*
X173600Y112500D02*
X174600D01*
X189800D02*
X195000D01*
X198000D02*
X200600D01*
X203600D02*
X206600D01*
X217000D02*
X218000D01*
X173600Y112300D02*
X174600D01*
X189600D02*
X195000D01*
X198200D02*
X200000D01*
X203400D02*
X206400D01*
X217000D02*
X218000D01*
X173600Y112100D02*
X174600D01*
X189400D02*
X194800D01*
X203400D02*
X206200D01*
X217000D02*
X218000D01*
X173600Y111900D02*
X174600D01*
X189200D02*
X194800D01*
X203200D02*
X206200D01*
X217000D02*
X218000D01*
X173600Y111700D02*
X174600D01*
X189000D02*
X194800D01*
X203000D02*
X206000D01*
X217000D02*
X218000D01*
X173600Y111500D02*
X174600D01*
X189000D02*
X192000D01*
X192200D02*
X194600D01*
X203000D02*
X205800D01*
X217000D02*
X218000D01*
X173600Y111300D02*
X174600D01*
X188800D02*
X191800D01*
X192000D02*
X194600D01*
X202800D02*
X205800D01*
X217000D02*
X218000D01*
X173600Y111100D02*
X174600D01*
X188600D02*
X191600D01*
X192000D02*
X194600D01*
X202800D02*
X205600D01*
X217000D02*
X218000D01*
X173600Y110900D02*
X174600D01*
X188400D02*
X191400D01*
X192000D02*
X194400D01*
X202600D02*
X205400D01*
X217000D02*
X218000D01*
X173600Y110700D02*
X174600D01*
X188200D02*
X191200D01*
X191800D02*
X194400D01*
X202400D02*
X205400D01*
X217000D02*
X218000D01*
X173600Y110500D02*
X174600D01*
X188000D02*
X191000D01*
X191800D02*
X194400D01*
X202400D02*
X205200D01*
X217000D02*
X218000D01*
X173600Y110300D02*
X174600D01*
X187800D02*
X190800D01*
X191800D02*
X194200D01*
X202200D02*
X205000D01*
X217000D02*
X218000D01*
X173600Y110100D02*
X174600D01*
X187800D02*
X190800D01*
X191600D02*
X194200D01*
X202200D02*
X205000D01*
X217000D02*
X218000D01*
X173600Y109900D02*
X174600D01*
X187600D02*
X190600D01*
X191600D02*
X194200D01*
X202000D02*
X204800D01*
X217000D02*
X218000D01*
X173600Y109700D02*
X174600D01*
X187400D02*
X190400D01*
X191600D02*
X194200D01*
X201800D02*
X204800D01*
X217000D02*
X218000D01*
X173600Y109500D02*
X174600D01*
X187200D02*
X190200D01*
X191400D02*
X194000D01*
X201800D02*
X204600D01*
X217000D02*
X218000D01*
X173600Y109300D02*
X174600D01*
X187000D02*
X190000D01*
X191400D02*
X194000D01*
X201600D02*
X204400D01*
X217000D02*
X218000D01*
X173600Y109100D02*
X174600D01*
X186800D02*
X189800D01*
X191400D02*
X194000D01*
X201600D02*
X204400D01*
X217000D02*
X218000D01*
X173600Y108900D02*
X174600D01*
X186600D02*
X189600D01*
X191400D02*
X193800D01*
X201400D02*
X204200D01*
X217000D02*
X218000D01*
X173600Y108700D02*
X174600D01*
X186600D02*
X189600D01*
X191200D02*
X193800D01*
X201200D02*
X204200D01*
X217000D02*
X218000D01*
X173600Y108500D02*
X174600D01*
X186400D02*
X189400D01*
X191200D02*
X193800D01*
X201200D02*
X204000D01*
X217000D02*
X218000D01*
X173600Y108300D02*
X174600D01*
X186200D02*
X189200D01*
X191200D02*
X193800D01*
X201000D02*
X203800D01*
X217000D02*
X218000D01*
X173600Y108100D02*
X174600D01*
X186000D02*
X189000D01*
X191200D02*
X193600D01*
X201000D02*
X203800D01*
X217000D02*
X218000D01*
X173600Y107900D02*
X174600D01*
X185800D02*
X188800D01*
X191000D02*
X193600D01*
X200800D02*
X203600D01*
X217000D02*
X218000D01*
X173600Y107700D02*
X174600D01*
X185800D02*
X188800D01*
X191000D02*
X193600D01*
X200600D02*
X203600D01*
X217000D02*
X218000D01*
X173600Y107500D02*
X174600D01*
X185600D02*
X188600D01*
X191000D02*
X194800D01*
X200600D02*
X203400D01*
X217000D02*
X218000D01*
X173600Y107300D02*
X174600D01*
X185400D02*
X188400D01*
X191000D02*
X195000D01*
X200400D02*
X203400D01*
X217000D02*
X218000D01*
X173600Y107100D02*
X174600D01*
X185200D02*
X188200D01*
X190000D02*
X195000D01*
X200400D02*
X203200D01*
X217000D02*
X218000D01*
X173600Y106900D02*
X174600D01*
X185200D02*
X188200D01*
X189200D02*
X195000D01*
X200200D02*
X203000D01*
X217000D02*
X218000D01*
X173600Y106700D02*
X174600D01*
X185000D02*
X188000D01*
X188400D02*
X195000D01*
X200200D02*
X203000D01*
X217000D02*
X218000D01*
X173600Y106500D02*
X174600D01*
X184800D02*
X195000D01*
X200000D02*
X202800D01*
X217000D02*
X218000D01*
X173600Y106300D02*
X174600D01*
X184800D02*
X195000D01*
X200000D02*
X202800D01*
X217000D02*
X218000D01*
X173600Y106100D02*
X174600D01*
X184600D02*
X195000D01*
X199800D02*
X202600D01*
X217000D02*
X218000D01*
X173600Y105900D02*
X174600D01*
X184400D02*
X194800D01*
X199800D02*
X202600D01*
X217000D02*
X218000D01*
X173600Y105700D02*
X174600D01*
X184200D02*
X194400D01*
X199600D02*
X202400D01*
X217000D02*
X218000D01*
X173600Y105500D02*
X174600D01*
X184200D02*
X193000D01*
X199600D02*
X202400D01*
X217000D02*
X218000D01*
X173600Y105300D02*
X174600D01*
X183800D02*
X192800D01*
X199400D02*
X202200D01*
X217000D02*
X218000D01*
X173600Y105100D02*
X174600D01*
X183200D02*
X190000D01*
X190200D02*
X192800D01*
X199400D02*
X202200D01*
X217000D02*
X218000D01*
X173600Y104900D02*
X174600D01*
X182600D02*
X189200D01*
X190200D02*
X192800D01*
X199200D02*
X202000D01*
X217000D02*
X218000D01*
X173600Y104700D02*
X174600D01*
X182000D02*
X188400D01*
X190000D02*
X192600D01*
X199200D02*
X202000D01*
X217000D02*
X218000D01*
X173600Y104500D02*
X174600D01*
X181400D02*
X187800D01*
X190000D02*
X192600D01*
X199000D02*
X201800D01*
X217000D02*
X218000D01*
X173600Y104300D02*
X174600D01*
X181000D02*
X187000D01*
X190000D02*
X192600D01*
X199000D02*
X201800D01*
X217000D02*
X218000D01*
X173600Y104100D02*
X174600D01*
X180600D02*
X186600D01*
X190000D02*
X192600D01*
X198800D02*
X201600D01*
X217000D02*
X218000D01*
X173600Y103900D02*
X174600D01*
X180200D02*
X186000D01*
X190000D02*
X192600D01*
X198800D02*
X201600D01*
X217000D02*
X218000D01*
X173600Y103700D02*
X174600D01*
X180200D02*
X185800D01*
X189800D02*
X192400D01*
X198600D02*
X201400D01*
X217000D02*
X218000D01*
X173600Y103500D02*
X174600D01*
X180200D02*
X185600D01*
X189800D02*
X192400D01*
X198600D02*
X201400D01*
X217000D02*
X218000D01*
X173600Y103300D02*
X174600D01*
X180200D02*
X185600D01*
X189800D02*
X192400D01*
X198400D02*
X201200D01*
X217000D02*
X218000D01*
X173600Y103100D02*
X174600D01*
X180200D02*
X185400D01*
X189800D02*
X192400D01*
X198400D02*
X201200D01*
X217000D02*
X218000D01*
X173600Y102900D02*
X174600D01*
X180200D02*
X185200D01*
X189800D02*
X192400D01*
X198200D02*
X201000D01*
X217000D02*
X218000D01*
X173600Y102700D02*
X174600D01*
X180200D02*
X185200D01*
X189600D02*
X192200D01*
X198200D02*
X201000D01*
X217000D02*
X218000D01*
X173600Y102500D02*
X174600D01*
X180400D02*
X182000D01*
X182200D02*
X185000D01*
X189600D02*
X192200D01*
X198200D02*
X200800D01*
X217000D02*
X218000D01*
X173600Y102300D02*
X174600D01*
X182000D02*
X184800D01*
X189600D02*
X192200D01*
X198000D02*
X200800D01*
X217000D02*
X218000D01*
X173600Y102100D02*
X174600D01*
X182000D02*
X184800D01*
X189600D02*
X192200D01*
X197800D02*
X200600D01*
X217000D02*
X218000D01*
X173600Y101900D02*
X174600D01*
X181800D02*
X184600D01*
X189600D02*
X192200D01*
X197800D02*
X200600D01*
X217000D02*
X218000D01*
X173600Y101700D02*
X174600D01*
X181600D02*
X184400D01*
X189400D02*
X192000D01*
X197600D02*
X200400D01*
X217000D02*
X218000D01*
X173600Y101500D02*
X174600D01*
X181600D02*
X184400D01*
X189400D02*
X192000D01*
X197600D02*
X200400D01*
X217000D02*
X218000D01*
X173600Y101300D02*
X174600D01*
X181400D02*
X184200D01*
X189400D02*
X192000D01*
X197400D02*
X200400D01*
X217000D02*
X218000D01*
X173600Y101100D02*
X174600D01*
X181200D02*
X184200D01*
X189400D02*
X192000D01*
X197400D02*
X200200D01*
X217000D02*
X218000D01*
X173600Y100900D02*
X174600D01*
X181200D02*
X184000D01*
X189400D02*
X192000D01*
X197400D02*
X200200D01*
X217000D02*
X218000D01*
X173600Y100700D02*
X174600D01*
X181000D02*
X183800D01*
X189400D02*
X191800D01*
X197200D02*
X200000D01*
X217000D02*
X218000D01*
X173600Y100500D02*
X174600D01*
X181000D02*
X183800D01*
X189200D02*
X191800D01*
X197200D02*
X200000D01*
X217000D02*
X218000D01*
X173600Y100300D02*
X174600D01*
X180800D02*
X183600D01*
X189200D02*
X191800D01*
X197200D02*
X199800D01*
X217000D02*
X218000D01*
X173600Y100100D02*
X174600D01*
X180600D02*
X183600D01*
X189200D02*
X191800D01*
X197000D02*
X199800D01*
X217000D02*
X218000D01*
X173600Y99900D02*
X174600D01*
X180600D02*
X183400D01*
X189200D02*
X191800D01*
X196800D02*
X199800D01*
X217000D02*
X218000D01*
X173600Y99700D02*
X174600D01*
X180400D02*
X183200D01*
X189200D02*
X191800D01*
X196800D02*
X199600D01*
X217000D02*
X218000D01*
X173600Y99500D02*
X174600D01*
X180400D02*
X183200D01*
X189200D02*
X191800D01*
X196800D02*
X199600D01*
X217000D02*
X218000D01*
X173600Y99300D02*
X174600D01*
X180200D02*
X183000D01*
X189200D02*
X191600D01*
X196800D02*
X199400D01*
X217000D02*
X218000D01*
X173600Y99100D02*
X174600D01*
X180000D02*
X183000D01*
X189200D02*
X191600D01*
X196600D02*
X199400D01*
X217000D02*
X218000D01*
X173600Y98900D02*
X174600D01*
X180000D02*
X182800D01*
X189000D02*
X191600D01*
X196600D02*
X199400D01*
X217000D02*
X218000D01*
X173600Y98700D02*
X174600D01*
X179800D02*
X182600D01*
X189000D02*
X191600D01*
X196600D02*
X199200D01*
X217000D02*
X218000D01*
X173600Y98500D02*
X174600D01*
X179800D02*
X182600D01*
X189000D02*
X191600D01*
X196400D02*
X199200D01*
X217000D02*
X218000D01*
X173600Y98300D02*
X174600D01*
X179600D02*
X182400D01*
X189000D02*
X191600D01*
X196400D02*
X199200D01*
X217000D02*
X218000D01*
X173600Y98100D02*
X174600D01*
X179600D02*
X182400D01*
X189000D02*
X191600D01*
X196400D02*
X199000D01*
X217000D02*
X218000D01*
X173600Y97900D02*
X174600D01*
X179400D02*
X182200D01*
X189000D02*
X191600D01*
X196400D02*
X199000D01*
X217000D02*
X218000D01*
X173600Y97700D02*
X174600D01*
X179400D02*
X182200D01*
X189000D02*
X191400D01*
X196200D02*
X199000D01*
X217000D02*
X218000D01*
X173600Y97500D02*
X174600D01*
X179400D02*
X182000D01*
X189000D02*
X191400D01*
X196200D02*
X198800D01*
X217000D02*
X218000D01*
X173600Y97300D02*
X174600D01*
X179400D02*
X181800D01*
X189000D02*
X191400D01*
X196200D02*
X198800D01*
X217000D02*
X218000D01*
X173600Y97100D02*
X174600D01*
X179200D02*
X181800D01*
X189200D02*
X191400D01*
X196200D02*
X198800D01*
X217000D02*
X218000D01*
X173600Y96900D02*
X174600D01*
X179200D02*
X181600D01*
X189200D02*
X191400D01*
X196200D02*
X198600D01*
X217000D02*
X218000D01*
X173600Y96700D02*
X174600D01*
X179400D02*
X181400D01*
X189200D02*
X191400D01*
X196400D02*
X198600D01*
X217000D02*
X218000D01*
X173600Y96500D02*
X174600D01*
X179600D02*
X181200D01*
X189400D02*
X191400D01*
X196600D02*
X198600D01*
X217000D02*
X218000D01*
X173600Y96300D02*
X174600D01*
X189800D02*
X191000D01*
X196800D02*
X198400D01*
X217000D02*
X218000D01*
X173600Y96100D02*
X174600D01*
X217000D02*
X218000D01*
X173600Y95900D02*
X174600D01*
X217000D02*
X218000D01*
X173600Y95700D02*
X174600D01*
X217000D02*
X218000D01*
X173600Y95500D02*
X174600D01*
X217000D02*
X218000D01*
X173600Y95300D02*
X174600D01*
X217000D02*
X218000D01*
X173600Y95100D02*
X174600D01*
X217000D02*
X218000D01*
X173600Y94900D02*
X174600D01*
X217000D02*
X218000D01*
X173600Y94700D02*
X174600D01*
X217000D02*
X218000D01*
X173600Y94500D02*
X174600D01*
X217000D02*
X218000D01*
X173600Y94300D02*
X174600D01*
X217000D02*
X218000D01*
X173600Y94100D02*
X174600D01*
X217000D02*
X218000D01*
X173600Y93900D02*
X174600D01*
X217000D02*
X218000D01*
X173600Y93700D02*
X174600D01*
X217000D02*
X218000D01*
X173600Y93500D02*
X174600D01*
X217000D02*
X218000D01*
X173600Y93300D02*
X174600D01*
X217000D02*
X218000D01*
X173600Y93100D02*
X174600D01*
X217000D02*
X218000D01*
X173600Y92900D02*
X174600D01*
X217000D02*
X218000D01*
X173600Y92700D02*
X174600D01*
X217000D02*
X218000D01*
X173600Y92500D02*
X174600D01*
X217000D02*
X218000D01*
X173600Y92300D02*
X174600D01*
X217000D02*
X218000D01*
X173600Y92100D02*
X218000D01*
X173600Y91900D02*
X218000D01*
X173600Y91700D02*
X218000D01*
X173600Y91500D02*
X218000D01*
X173600Y91300D02*
X218000D01*
D11*
X41500Y69290D02*
Y63292D01*
Y66291D01*
X45499D01*
Y69290D01*
Y63292D01*
X47498Y69290D02*
X51497D01*
X49497D01*
Y63292D01*
X53496Y69290D02*
X57495D01*
X55496D01*
Y63292D01*
X59494D02*
Y69290D01*
X62493D01*
X63493Y68291D01*
Y66291D01*
X62493Y65292D01*
X59494D01*
X69491Y68291D02*
X68491Y69290D01*
X66492D01*
X65492Y68291D01*
Y67291D01*
X66492Y66291D01*
X68491D01*
X69491Y65292D01*
Y64292D01*
X68491Y63292D01*
X66492D01*
X65492Y64292D01*
X71490Y67291D02*
X72490D01*
Y66291D01*
X71490D01*
Y67291D01*
Y64292D02*
X72490D01*
Y63292D01*
X71490D01*
Y64292D01*
X76489Y63292D02*
X80487Y67291D01*
X82487Y63292D02*
X86485Y67291D01*
X92484Y68291D02*
X91484Y69290D01*
X89485D01*
X88485Y68291D01*
Y64292D01*
X89485Y63292D01*
X91484D01*
X92484Y64292D01*
Y66291D01*
X90484D01*
X94483Y63292D02*
X96482D01*
X95482D01*
Y67291D01*
X94483D01*
X100481Y68291D02*
Y67291D01*
X99481D01*
X101481D01*
X100481D01*
Y64292D01*
X101481Y63292D01*
X104480Y69290D02*
Y63292D01*
Y66291D01*
X105479Y67291D01*
X107479D01*
X108478Y66291D01*
Y63292D01*
X110478Y67291D02*
Y64292D01*
X111477Y63292D01*
X114476D01*
Y67291D01*
X116476Y69290D02*
Y63292D01*
X119475D01*
X120475Y64292D01*
Y65292D01*
Y66291D01*
X119475Y67291D01*
X116476D01*
X122474Y63292D02*
Y64292D01*
X123474D01*
Y63292D01*
X122474D01*
X131471Y67291D02*
X128472D01*
X127472Y66291D01*
Y64292D01*
X128472Y63292D01*
X131471D01*
X134470D02*
X136469D01*
X137469Y64292D01*
Y66291D01*
X136469Y67291D01*
X134470D01*
X133470Y66291D01*
Y64292D01*
X134470Y63292D01*
X139468D02*
Y67291D01*
X140468D01*
X141468Y66291D01*
Y63292D01*
Y66291D01*
X142467Y67291D01*
X143467Y66291D01*
Y63292D01*
X145466D02*
X149465Y67291D01*
X151464Y63292D02*
Y67291D01*
X153464Y69290D01*
X155463Y67291D01*
Y63292D01*
Y66291D01*
X151464D01*
X161461Y69290D02*
Y63292D01*
X158462D01*
X157463Y64292D01*
Y66291D01*
X158462Y67291D01*
X161461D01*
X164460D02*
X166460D01*
X167459Y66291D01*
Y63292D01*
X164460D01*
X163461Y64292D01*
X164460Y65292D01*
X167459D01*
X169459Y63292D02*
Y67291D01*
X172458D01*
X173457Y66291D01*
Y63292D01*
X179455Y67291D02*
X176456D01*
X175457Y66291D01*
Y64292D01*
X176456Y63292D01*
X179455D01*
X181455Y67291D02*
Y64292D01*
X182454Y63292D01*
X185453D01*
Y67291D01*
X187453D02*
Y63292D01*
Y65292D01*
X188452Y66291D01*
X189452Y67291D01*
X190452D01*
X193451D02*
Y64292D01*
X194450Y63292D01*
X197450D01*
Y67291D01*
X199449Y63292D02*
X202448D01*
X203448Y64292D01*
X202448Y65292D01*
X200449D01*
X199449Y66291D01*
X200449Y67291D01*
X203448D01*
X205447D02*
Y64292D01*
X206447Y63292D01*
X209446D01*
Y67291D01*
X211445Y63292D02*
X213444D01*
X212445D01*
Y69290D01*
X211445D01*
X41500Y59693D02*
Y53695D01*
Y56694D01*
X45499D01*
Y59693D01*
Y53695D01*
X47498Y59693D02*
X51497D01*
X49497D01*
Y53695D01*
X53496Y59693D02*
X57495D01*
X55496D01*
Y53695D01*
X59494D02*
Y59693D01*
X62493D01*
X63493Y58693D01*
Y56694D01*
X62493Y55694D01*
X59494D01*
X69491Y58693D02*
X68491Y59693D01*
X66492D01*
X65492Y58693D01*
Y57693D01*
X66492Y56694D01*
X68491D01*
X69491Y55694D01*
Y54694D01*
X68491Y53695D01*
X66492D01*
X65492Y54694D01*
X71490Y57693D02*
X72490D01*
Y56694D01*
X71490D01*
Y57693D01*
Y54694D02*
X72490D01*
Y53695D01*
X71490D01*
Y54694D01*
X76489Y53695D02*
X80487Y57693D01*
X82487Y53695D02*
X86485Y57693D01*
X92484Y58693D02*
X91484Y59693D01*
X89485D01*
X88485Y58693D01*
Y54694D01*
X89485Y53695D01*
X91484D01*
X92484Y54694D01*
Y56694D01*
X90484D01*
X94483Y53695D02*
X96482D01*
X95482D01*
Y57693D01*
X94483D01*
X100481Y58693D02*
Y57693D01*
X99481D01*
X101481D01*
X100481D01*
Y54694D01*
X101481Y53695D01*
X104480Y59693D02*
Y53695D01*
Y56694D01*
X105479Y57693D01*
X107479D01*
X108478Y56694D01*
Y53695D01*
X110478Y57693D02*
Y54694D01*
X111477Y53695D01*
X114476D01*
Y57693D01*
X116476Y59693D02*
Y53695D01*
X119475D01*
X120475Y54694D01*
Y55694D01*
Y56694D01*
X119475Y57693D01*
X116476D01*
X122474Y53695D02*
Y54694D01*
X123474D01*
Y53695D01*
X122474D01*
X131471Y57693D02*
X128472D01*
X127472Y56694D01*
Y54694D01*
X128472Y53695D01*
X131471D01*
X134470D02*
X136469D01*
X137469Y54694D01*
Y56694D01*
X136469Y57693D01*
X134470D01*
X133470Y56694D01*
Y54694D01*
X134470Y53695D01*
X139468D02*
Y57693D01*
X140468D01*
X141468Y56694D01*
Y53695D01*
Y56694D01*
X142467Y57693D01*
X143467Y56694D01*
Y53695D01*
X145466D02*
X149465Y57693D01*
X151464Y59693D02*
Y53695D01*
X154463D01*
X155463Y54694D01*
Y58693D01*
X154463Y59693D01*
X151464D01*
X157463Y53695D02*
X159462D01*
X158462D01*
Y57693D01*
X157463D01*
X163461Y53695D02*
X165460D01*
X166460Y54694D01*
Y56694D01*
X165460Y57693D01*
X163461D01*
X162461Y56694D01*
Y54694D01*
X163461Y53695D01*
X172458Y59693D02*
Y53695D01*
X169459D01*
X168459Y54694D01*
Y56694D01*
X169459Y57693D01*
X172458D01*
X177456Y53695D02*
X175457D01*
X174457Y54694D01*
Y56694D01*
X175457Y57693D01*
X177456D01*
X178456Y56694D01*
Y55694D01*
X174457D01*
X180455Y51695D02*
Y57693D01*
X183454D01*
X184454Y56694D01*
Y54694D01*
X183454Y53695D01*
X180455D01*
X41500Y48096D02*
Y42098D01*
Y45097D01*
X45499D01*
Y48096D01*
Y42098D01*
X47498Y48096D02*
X51497D01*
X49497D01*
Y42098D01*
X53496Y48096D02*
X57495D01*
X55496D01*
Y42098D01*
X59494D02*
Y48096D01*
X62493D01*
X63493Y47096D01*
Y45097D01*
X62493Y44097D01*
X59494D01*
X69491Y47096D02*
X68491Y48096D01*
X66492D01*
X65492Y47096D01*
Y46096D01*
X66492Y45097D01*
X68491D01*
X69491Y44097D01*
Y43097D01*
X68491Y42098D01*
X66492D01*
X65492Y43097D01*
X71490Y46096D02*
X72490D01*
Y45097D01*
X71490D01*
Y46096D01*
Y43097D02*
X72490D01*
Y42098D01*
X71490D01*
Y43097D01*
X76489Y42098D02*
X80487Y46096D01*
X82487Y42098D02*
X86485Y46096D01*
X92484Y47096D02*
X91484Y48096D01*
X89485D01*
X88485Y47096D01*
Y43097D01*
X89485Y42098D01*
X91484D01*
X92484Y43097D01*
Y45097D01*
X90484D01*
X94483Y42098D02*
X96482D01*
X95482D01*
Y46096D01*
X94483D01*
X100481Y47096D02*
Y46096D01*
X99481D01*
X101481D01*
X100481D01*
Y43097D01*
X101481Y42098D01*
X104480Y48096D02*
Y42098D01*
Y45097D01*
X105479Y46096D01*
X107479D01*
X108478Y45097D01*
Y42098D01*
X110478Y46096D02*
Y43097D01*
X111477Y42098D01*
X114476D01*
Y46096D01*
X116476Y48096D02*
Y42098D01*
X119475D01*
X120475Y43097D01*
Y44097D01*
Y45097D01*
X119475Y46096D01*
X116476D01*
X122474Y42098D02*
Y43097D01*
X123474D01*
Y42098D01*
X122474D01*
X131471Y46096D02*
X128472D01*
X127472Y45097D01*
Y43097D01*
X128472Y42098D01*
X131471D01*
X134470D02*
X136469D01*
X137469Y43097D01*
Y45097D01*
X136469Y46096D01*
X134470D01*
X133470Y45097D01*
Y43097D01*
X134470Y42098D01*
X139468D02*
Y46096D01*
X140468D01*
X141468Y45097D01*
Y42098D01*
Y45097D01*
X142467Y46096D01*
X143467Y45097D01*
Y42098D01*
X145466D02*
X149465Y46096D01*
X151464Y42098D02*
Y48096D01*
X154463D01*
X155463Y47096D01*
Y45097D01*
X154463Y44097D01*
X151464D01*
X153464D02*
X155463Y42098D01*
X157463Y48096D02*
Y42098D01*
Y45097D01*
X161461D01*
Y48096D01*
Y42098D01*
X163461D02*
Y48096D01*
X166460D01*
X167459Y47096D01*
Y45097D01*
X166460Y44097D01*
X163461D01*
X169459Y48096D02*
Y47096D01*
X171458Y45097D01*
X173457Y47096D01*
Y48096D01*
X171458Y45097D02*
Y42098D01*
X175457Y48096D02*
Y43097D01*
X176456Y42098D01*
X178456D01*
X179455Y43097D01*
Y48096D01*
X41500Y38498D02*
Y32500D01*
Y35499D01*
X45499D01*
Y38498D01*
Y32500D01*
X47498Y38498D02*
X51497D01*
X49497D01*
Y32500D01*
X53496Y38498D02*
X57495D01*
X55496D01*
Y32500D01*
X59494D02*
Y38498D01*
X62493D01*
X63493Y37498D01*
Y35499D01*
X62493Y34499D01*
X59494D01*
X69491Y37498D02*
X68491Y38498D01*
X66492D01*
X65492Y37498D01*
Y36499D01*
X66492Y35499D01*
X68491D01*
X69491Y34499D01*
Y33500D01*
X68491Y32500D01*
X66492D01*
X65492Y33500D01*
X71490Y36499D02*
X72490D01*
Y35499D01*
X71490D01*
Y36499D01*
Y33500D02*
X72490D01*
Y32500D01*
X71490D01*
Y33500D01*
X76489Y32500D02*
X80487Y36499D01*
X82487Y32500D02*
X86485Y36499D01*
X92484Y37498D02*
X91484Y38498D01*
X89485D01*
X88485Y37498D01*
Y33500D01*
X89485Y32500D01*
X91484D01*
X92484Y33500D01*
Y35499D01*
X90484D01*
X94483Y32500D02*
X96482D01*
X95482D01*
Y36499D01*
X94483D01*
X100481Y37498D02*
Y36499D01*
X99481D01*
X101481D01*
X100481D01*
Y33500D01*
X101481Y32500D01*
X104480Y38498D02*
Y32500D01*
Y35499D01*
X105479Y36499D01*
X107479D01*
X108478Y35499D01*
Y32500D01*
X110478Y36499D02*
Y33500D01*
X111477Y32500D01*
X114476D01*
Y36499D01*
X116476Y38498D02*
Y32500D01*
X119475D01*
X120475Y33500D01*
Y34499D01*
Y35499D01*
X119475Y36499D01*
X116476D01*
X122474Y32500D02*
Y33500D01*
X123474D01*
Y32500D01*
X122474D01*
X131471Y36499D02*
X128472D01*
X127472Y35499D01*
Y33500D01*
X128472Y32500D01*
X131471D01*
X134470D02*
X136469D01*
X137469Y33500D01*
Y35499D01*
X136469Y36499D01*
X134470D01*
X133470Y35499D01*
Y33500D01*
X134470Y32500D01*
X139468D02*
Y36499D01*
X140468D01*
X141468Y35499D01*
Y32500D01*
Y35499D01*
X142467Y36499D01*
X143467Y35499D01*
Y32500D01*
X145466D02*
X149465Y36499D01*
X151464Y32500D02*
Y38498D01*
X154463D01*
X155463Y37498D01*
Y35499D01*
X154463Y34499D01*
X151464D01*
X153464D02*
X155463Y32500D01*
X157463D02*
Y38498D01*
X160461D01*
X161461Y37498D01*
Y35499D01*
X160461Y34499D01*
X157463D01*
X167459Y37498D02*
X166460Y38498D01*
X164460D01*
X163461Y37498D01*
Y33500D01*
X164460Y32500D01*
X166460D01*
X167459Y33500D01*
Y35499D01*
X165460D01*
X169459D02*
X173457D01*
X175457Y38498D02*
X179455D01*
Y37498D01*
X175457Y33500D01*
Y32500D01*
M02*
